<svg width="118" height="118" viewBox="0 0 118 118" fill="none" xmlns="http://www.w3.org/2000/svg">
<path d="M56.01 65.62C56.01 62.16 55.71 58.82 56.14 55.58C56.35 54.01 57.89 52.61 58.83 51.13C59.65 52.54 61.01 53.88 61.17 55.36C61.53 58.63 61.28 61.96 61.28 66.13C67.2 66.13 72.78 66.03 78.35 66.16C83.49 66.28 88.71 66.13 93.72 67.06C100.84 68.38 106.54 75.21 106.9 82.16C106.97 83.63 105.64 85.17 104.95 86.68C103.9 85.52 102.26 84.53 101.9 83.19C99.68 74.85 96.05 71.8 87.45 71.73C78.98 71.67 70.51 71.72 61.27 71.72C61.27 75.76 61.48 79.37 61.16 82.94C61.04 84.26 59.69 85.48 58.91 86.74C57.94 85.45 56.3 84.24 56.14 82.86C55.74 79.44 56.01 75.94 56.01 72.13C45.35 72.13 35.08 71.6 24.9 72.35C19.79 72.73 16.91 77.1 15.85 82.38C15.53 83.98 13.87 85.31 12.83 86.76C12.11 85.01 10.58 83.15 10.8 81.52C12.04 72.29 19.36 66.33 29.32 66.17C37.64 66.04 45.96 66.1 54.28 66.06C54.6 66.05 54.92 65.9 56.01 65.62Z" fill="inherit"/>
<path d="M58.57 46.1C55.24 46.1 51.92 46.17 48.59 46.08C41.21 45.88 36.06 40.86 35.91 33.52C35.77 26.87 35.8 20.21 35.89 13.56C36 5.67 40.93 0.48 48.93 0.18C55.4 -0.0700001 61.9 -0.0400001 68.38 0.17C76.05 0.42 81.32 5.34 81.72 12.92C82.08 19.72 82.07 26.57 81.73 33.37C81.33 41.35 76.08 46 68.05 46.1C64.9 46.14 61.73 46.11 58.57 46.1ZM59.25 5.72C59.25 5.71 59.25 5.69 59.25 5.68C56.09 5.68 52.93 5.68 49.77 5.68C49.44 5.68 49.1 5.68 48.77 5.71C44.1 6.09 41.27 8.68 41.15 13.25C40.97 19.9 40.98 26.56 41.15 33.22C41.27 37.8 44.1 40.71 48.68 40.85C55.33 41.06 61.99 41.04 68.64 40.86C73.24 40.74 76.05 37.9 76.17 33.28C76.35 26.63 76.34 19.97 76.17 13.32C76.05 8.46 73.59 6.04 68.73 5.76C65.58 5.57 62.41 5.72 59.25 5.72Z" fill="inherit"/>
<path d="M58.6199 117.15C56.6199 117.15 54.6199 117.23 52.6299 117.13C48.4699 116.92 46.1999 114.58 46.0099 110.5C45.8299 106.51 45.8399 102.5 45.9999 98.52C46.1699 94.45 48.3799 92 52.5499 91.84C56.5399 91.69 60.5399 91.74 64.5399 91.81C68.9899 91.89 71.2499 94.43 71.4799 98.7C71.6799 102.35 71.6799 106.03 71.5099 109.68C71.2799 114.94 68.9799 117.02 63.6099 117.17C61.9499 117.22 60.2799 117.18 58.6199 117.18C58.6199 117.17 58.6199 117.16 58.6199 117.15ZM65.7899 97.05C61.4699 97.05 57.7999 96.83 54.1699 97.19C53.0799 97.3 51.4099 98.93 51.2599 100.03C49.6699 111.61 50.1399 112.09 61.6699 111.95C62.9499 111.93 64.2399 111.75 65.7799 111.63C65.7899 106.76 65.7899 102.2 65.7899 97.05Z" fill="inherit"/>
<path d="M13.07 117.18C11.25 117.17 9.41998 117.24 7.59998 117.16C2.80998 116.96 0.279978 114.58 0.119978 109.75C-0.530022 89.79 0.849979 91.53 19.94 91.93C23.62 92.01 25.4 94.81 25.87 98.22C26.14 100.17 25.97 102.19 25.97 104.18C25.97 116.29 25.08 117.18 13.07 117.18ZM5.88998 111.59C10.83 111.59 15.39 111.59 20.14 111.59C20.14 106.65 20.14 102.08 20.14 97.4C15.2 97.4 10.65 97.4 5.88998 97.4C5.88998 102.35 5.88998 106.93 5.88998 111.59Z" fill="inherit"/>
<path d="M104.41 91.8C106.41 91.8 108.41 91.73 110.4 91.81C114.55 91.98 116.92 94.19 117.09 98.33C117.26 102.48 117.28 106.65 117.08 110.8C116.89 114.68 114.62 116.94 110.72 117.1C106.57 117.27 102.4 117.25 98.2501 117.11C94.3401 116.98 92.0801 114.74 91.8201 110.86C91.6001 107.55 91.6901 104.21 91.7201 100.88C91.7701 93.61 93.6101 91.81 100.93 91.76C102.09 91.75 103.26 91.76 104.42 91.76C104.41 91.78 104.41 91.79 104.41 91.8ZM97.2601 111.94C101.48 111.94 105.14 112.16 108.75 111.81C109.89 111.7 111.83 110.05 111.78 109.2C111.55 105.16 110.76 101.14 110.15 97.12C110.14 97.08 109.84 97.08 109.67 97.08C105.58 97.08 101.5 97.08 97.2601 97.08C97.2601 102.3 97.2601 106.74 97.2601 111.94Z" fill="inherit"/>
</svg>
