<svg id="copy" xmlns="http://www.w3.org/2000/svg" width="13.938" height="17.407" viewBox="0 0 13.938 17.407">
  <g id="Group_20" data-name="Group 20">
    <path id="Path_17" data-name="Path 17" d="M58.118,85.4H50.026a1.377,1.377,0,0,0-1.376,1.376V98.387a1.377,1.377,0,0,0,1.376,1.376h8.092a1.377,1.377,0,0,0,1.376-1.376V86.776A1.381,1.381,0,0,0,58.118,85.4Zm.41,12.983a.414.414,0,0,1-.414.414H50.022a.414.414,0,0,1-.414-.414V86.776a.414.414,0,0,1,.414-.414h8.092a.414.414,0,0,1,.414.414Z" transform="translate(-48.65 -82.356)" fill="#001d53"/>
    <path id="Path_18" data-name="Path 18" d="M144.918,0h-8.092a1.377,1.377,0,0,0-1.376,1.376.481.481,0,1,0,.962,0,.414.414,0,0,1,.414-.414h8.092a.414.414,0,0,1,.414.414V12.987a.414.414,0,0,1-.414.414.481.481,0,0,0,0,.963,1.377,1.377,0,0,0,1.376-1.376V1.376A1.377,1.377,0,0,0,144.918,0Z" transform="translate(-132.356)" fill="#001d53"/>
  </g>
</svg>
