<svg xmlns="http://www.w3.org/2000/svg" width="22.278" height="22.277" viewBox="0 0 22.278 22.277">
  <g id="close" transform="translate(22.278) rotate(90)">
    <path id="Path_1207" data-name="Path 1207" d="M1.146,22.278a1.147,1.147,0,0,1-.81-1.957L20.321.336a1.146,1.146,0,0,1,1.621,1.621L1.957,21.942A1.149,1.149,0,0,1,1.146,22.278Zm0,0" transform="translate(0)" fill="#021a53"/>
    <path id="Path_1208" data-name="Path 1208" d="M21.132,22.278a1.137,1.137,0,0,1-.81-.336L.336,1.957A1.146,1.146,0,1,1,1.957.336L21.942,20.321a1.147,1.147,0,0,1-.81,1.957Zm0,0" transform="translate(0)" fill="#021a53"/>
  </g>
</svg>
