<svg xmlns="http://www.w3.org/2000/svg" width="24.123" height="18.597" viewBox="0 0 24.123 18.597">
  <g id="envelope" transform="translate(0.5 0.5)">
    <g id="Group_23" data-name="Group 23" transform="translate(0 0)">
      <path id="Path_25" data-name="Path 25" d="M20.3,57.75H2.828A2.83,2.83,0,0,0,0,60.578V72.52a2.83,2.83,0,0,0,2.828,2.828H20.3a2.83,2.83,0,0,0,2.828-2.828V60.582A2.827,2.827,0,0,0,20.3,57.75Zm1.536,14.77A1.538,1.538,0,0,1,20.3,74.055H2.828A1.538,1.538,0,0,1,1.292,72.52V60.582a1.538,1.538,0,0,1,1.536-1.536H20.3a1.538,1.538,0,0,1,1.536,1.536V72.52Z" transform="translate(0 -57.75)" fill="#001d53" stroke="#fff" stroke-width="1"/>
      <path id="Path_26" data-name="Path 26" d="M67.668,115.105l5.655-5.072a.647.647,0,0,0-.866-.962l-7.8,7-1.521-1.359s-.01-.01-.01-.014a.958.958,0,0,0-.105-.091l-6.191-5.54a.647.647,0,1,0-.861.966l5.722,5.115-5.7,5.335a.649.649,0,0,0-.029.914.661.661,0,0,0,.474.206.647.647,0,0,0,.44-.172l5.784-5.411,1.569,1.4a.644.644,0,0,0,.861,0l1.612-1.445,5.751,5.464a.648.648,0,0,0,.914-.024.648.648,0,0,0-.024-.914Z" transform="translate(-53.085 -106.455)" fill="#001d53" stroke="#fff" stroke-width="1"/>
    </g>
  </g>
</svg>
