<svg width="118" height="77" viewBox="0 0 118 77" fill="none" xmlns="http://www.w3.org/2000/svg">
<path d="M88.44 57.48C89.81 62.73 91.2799 67.13 91.9599 71.66C92.1999 73.25 90.47 75.13 89.63 76.87C88.63 75.4 86.98 74.04 86.73 72.46C84.52 58.5 76.8 49.68 64.25 47.19C48.36 44.04 33.22 55.12 31.39 71.23C31.28 72.22 31.6299 73.46 31.15 74.17C30.42 75.24 29.14 75.94 28.1 76.79C27.41 75.8 26.0299 74.71 26.15 73.83C26.69 69.75 27.62 65.72 28.47 61.68C28.7 60.58 29.18 59.53 29.53 58.49C19.79 53.88 8.47997 60.05 6.22997 70.76C5.75997 73.01 6.76996 77.35 2.74996 76.57C-1.19004 75.81 0.56996 72.08 1.15996 69.44C4.02996 56.51 16.38 48.8 29.13 52.22C32.23 53.05 34.13 52.6 36.47 50.31C48.84 38.27 68.69 38.06 81.16 49.9C83.76 52.37 85.79 53.08 89.31 52.14C102.12 48.73 115.32 57.74 117.26 70.85C117.36 71.51 117.58 72.27 117.35 72.82C116.78 74.19 115.98 75.47 115.27 76.78C114.26 75.59 112.6 74.54 112.33 73.2C110.35 63.52 105.47 58.12 96.66 56.94C94.01 56.6 91.24 57.27 88.44 57.48Z" fill="black"/>
<path d="M41.2099 18.06C41.3499 8.3 49.6199 0.239998 59.2399 0.469998C68.9099 0.699998 76.9699 8.98 76.8699 18.59C76.7699 28.54 68.4199 36.6 58.4699 36.34C48.7499 36.08 41.0699 27.96 41.2099 18.06ZM71.3899 18.26C71.3099 11.27 66.0299 6.07 59.0099 6.06C51.9799 6.05 46.2499 11.8 46.3999 18.71C46.5499 25.34 52.3499 31.08 58.9499 31.12C65.8299 31.14 71.4699 25.32 71.3899 18.26Z" fill="black"/>
<path d="M23.61 21.02C30.77 20.93 36.34 26.28 36.48 33.38C36.62 40.55 31.3 46.22 24.27 46.4C16.89 46.58 11.17 41.09 11.14 33.79C11.11 26.61 16.49 21.11 23.61 21.02ZM23.92 26.32C19.96 26.26 16.57 29.43 16.38 33.36C16.19 37.46 19.6 41.12 23.69 41.19C27.76 41.26 31.3 37.69 31.23 33.58C31.18 29.64 27.89 26.38 23.92 26.32Z" fill="black"/>
<path d="M94.5601 46.39C87.5101 46.41 81.8001 40.86 81.6801 33.87C81.5601 26.92 87.2101 21.14 94.2401 21.02C101.49 20.9 107.4 26.66 107.35 33.79C107.3 40.75 101.59 46.37 94.5601 46.39ZM94.4601 41.19C98.4401 41.22 102.17 37.49 102.07 33.57C101.97 29.71 98.5901 26.39 94.6801 26.32C90.5001 26.24 87.1501 29.64 87.2301 33.86C87.3001 37.84 90.5801 41.16 94.4601 41.19Z" fill="black"/>
</svg>
