<svg id="partner_1_" data-name="partner (1)" xmlns="http://www.w3.org/2000/svg" width="22" height="22" viewBox="0 0 22 22">
  <g id="Group_1126" data-name="Group 1126" transform="translate(6.6)">
    <g id="Group_1125" data-name="Group 1125">
      <path id="Path_1215" data-name="Path 1215" d="M150.409,4.16a2.567,2.567,0,1,0-4.017,0A4.411,4.411,0,0,0,144,8.067v1.1a.367.367,0,0,0,.367.367h8.067a.367.367,0,0,0,.367-.367v-1.1A4.411,4.411,0,0,0,150.409,4.16ZM148.4.733a1.828,1.828,0,0,1,1.083,3.3q-.065.048-.133.089c-.044.027-.09.051-.137.074a1.813,1.813,0,0,1-.182.08c-.027.01-.056.017-.084.026a1.877,1.877,0,0,1-1.1,0c-.028-.009-.056-.016-.084-.026a1.777,1.777,0,0,1-.182-.08c-.047-.023-.092-.047-.137-.074s-.09-.057-.133-.089A1.828,1.828,0,0,1,148.4.733ZM152.067,8.8h-7.333V8.067A3.677,3.677,0,0,1,146.968,4.7a2.544,2.544,0,0,0,.33.186h0a2.536,2.536,0,0,0,2.2,0h0a2.545,2.545,0,0,0,.33-.186,3.678,3.678,0,0,1,2.234,3.371Z" transform="translate(-144)" fill="inherit"/>
    </g>
  </g>
  <g id="Group_1128" data-name="Group 1128" transform="translate(0 12.467)">
    <g id="Group_1127" data-name="Group 1127">
      <path id="Path_1216" data-name="Path 1216" d="M6.409,276.16a2.567,2.567,0,1,0-4.017,0A4.411,4.411,0,0,0,0,280.067v1.1a.367.367,0,0,0,.367.367H8.433a.367.367,0,0,0,.367-.367v-1.1A4.411,4.411,0,0,0,6.409,276.16ZM4.4,272.733a1.828,1.828,0,0,1,1.083,3.3q-.065.048-.133.089c-.044.027-.09.051-.137.074a1.814,1.814,0,0,1-.182.08c-.027.01-.056.017-.084.026a1.876,1.876,0,0,1-1.1,0c-.028-.009-.056-.016-.084-.026a1.778,1.778,0,0,1-.182-.08c-.047-.023-.092-.047-.137-.074s-.09-.057-.133-.089a1.828,1.828,0,0,1,1.083-3.3ZM8.067,280.8H.733v-.733A3.677,3.677,0,0,1,2.968,276.7a2.546,2.546,0,0,0,.33.186h0a2.536,2.536,0,0,0,2.2,0h0a2.546,2.546,0,0,0,.33-.186,3.678,3.678,0,0,1,2.234,3.371Z" transform="translate(0 -272)" fill="inherit"/>
    </g>
  </g>
  <g id="Group_1130" data-name="Group 1130" transform="translate(13.2 12.467)">
    <g id="Group_1129" data-name="Group 1129">
      <path id="Path_1217" data-name="Path 1217" d="M294.409,276.16a2.567,2.567,0,1,0-4.017,0A4.411,4.411,0,0,0,288,280.067v1.1a.367.367,0,0,0,.367.367h8.067a.367.367,0,0,0,.367-.367v-1.1A4.411,4.411,0,0,0,294.409,276.16Zm-2.009-3.426a1.828,1.828,0,0,1,1.083,3.3q-.065.048-.133.089c-.044.027-.09.051-.137.074a1.812,1.812,0,0,1-.182.08c-.027.01-.056.017-.084.026a1.876,1.876,0,0,1-1.1,0c-.028-.009-.056-.016-.084-.026a1.778,1.778,0,0,1-.182-.08c-.047-.023-.092-.047-.137-.074s-.09-.057-.133-.089a1.828,1.828,0,0,1,1.083-3.3Zm3.667,8.067h-7.333v-.733a3.677,3.677,0,0,1,2.234-3.371,2.547,2.547,0,0,0,.33.186h0a2.536,2.536,0,0,0,2.2,0h0a2.547,2.547,0,0,0,.33-.186,3.678,3.678,0,0,1,2.234,3.371Z" transform="translate(-288 -272)" fill="inherit"/>
    </g>
  </g>
  <g id="Group_1132" data-name="Group 1132" transform="translate(8.938 10.267)">
    <g id="Group_1131" data-name="Group 1131">
      <path id="Path_1218" data-name="Path 1218" d="M197.429,226.024V224H196.7v2.024L195,227.38l.458.573,1.6-1.283,1.6,1.283.458-.573Z" transform="translate(-195 -224)" fill="inherit"/>
    </g>
  </g>
  <g id="Group_1134" data-name="Group 1134" transform="translate(10.633 5.867)">
    <g id="Group_1133" data-name="Group 1133">
      <rect id="Rectangle_187" data-name="Rectangle 187" height="1" transform="translate(0.366 0.133)" fill="inherit"/>
    </g>
  </g>
  <g id="Group_1136" data-name="Group 1136" transform="translate(10.633 7.333)">
    <g id="Group_1135" data-name="Group 1135">
      <rect id="Rectangle_188" data-name="Rectangle 188" height="1" transform="translate(0.366 -0.333)" fill="inherit"/>
    </g>
  </g>
  <g id="Group_1138" data-name="Group 1138" transform="translate(17.233 18.333)">
    <g id="Group_1137" data-name="Group 1137">
      <rect id="Rectangle_189" data-name="Rectangle 189" width="1" height="1" transform="translate(-0.233 -0.333)" fill="inherit"/>
    </g>
  </g>
  <g id="Group_1140" data-name="Group 1140" transform="translate(17.233 19.8)">
    <g id="Group_1139" data-name="Group 1139">
      <rect id="Rectangle_190" data-name="Rectangle 190" width="1" height="1" transform="translate(-0.233 0.2)" fill="inherit"/>
    </g>
  </g>
  <g id="Group_1142" data-name="Group 1142" transform="translate(4.033 18.333)">
    <g id="Group_1141" data-name="Group 1141">
      <rect id="Rectangle_191" data-name="Rectangle 191" width="1" height="1" transform="translate(-0.033 -0.333)" fill="inherit"/>
    </g>
  </g>
  <g id="Group_1144" data-name="Group 1144" transform="translate(4.033 19.8)">
    <g id="Group_1143" data-name="Group 1143">
      <rect id="Rectangle_192" data-name="Rectangle 192" width="1" height="1" transform="translate(-0.033 0.2)" fill="inherit"/>
    </g>
  </g>
</svg>
