<svg xmlns="http://www.w3.org/2000/svg" width="25.003" height="22.503" viewBox="0 0 25.003 22.503">
  <path id="Path_1183" data-name="Path 1183" d="M24.587,76.089H23.309l-.805-11.7A.417.417,0,0,0,22.086,64h-2.5a.417.417,0,0,0-.417.388l-.805,11.7H17.5v-2.5a.417.417,0,0,0-.677-.325l-3.49,2.792V73.589a.417.417,0,0,0-.677-.325l-3.49,2.792V73.589a.417.417,0,0,0-.677-.325L5,76.055V73.589a.417.417,0,0,0-.631-.357L.2,75.732a.417.417,0,0,0-.2.357v10a.417.417,0,0,0,.417.417h24.17A.417.417,0,0,0,25,86.09V76.506A.417.417,0,0,0,24.587,76.089ZM19.975,64.837H21.7l.776,11.252H19.2ZM14.168,85.674v-5h2.5v5Zm10,0H17.5V80.256a.417.417,0,0,0-.417-.417H13.752a.417.417,0,0,0-.417.417v5.417H.833V76.325l3.334-2v2.6a.417.417,0,0,0,.677.326l3.49-2.792v2.466a.417.417,0,0,0,.677.326l3.49-2.792v2.466a.417.417,0,0,0,.677.326l3.49-2.792v2.05a.417.417,0,0,0,.417.417H24.17v8.751Zm0,0" transform="translate(0 -64.004)" fill="#001d53"/>
</svg>
