<svg width="inherit" height="inherit" xmlns="http://www.w3.org/2000/svg" xmlnsXlink="http://www.w3.org/1999/xlink" xmlnsSvgjs="http://svgjs.com/svgjs" viewBox="0.336 0 20.327 19" fill="inherit"><svg xmlns="http://www.w3.org/2000/svg" width="inherit" height="inherit" viewBox="1 0 19.257 18"><path paint-order="stroke fill markers" fill-rule="evenodd" d="M20.026 7.978H18.49V.22A.208.208 0 0 0 18.27 0H9.688a.23.23 0 0 0-.17.063l-1.61 1.645a.23.23 0 0 0-.07.16v6.11H2.831a.233.233 0 0 0-.166.067L1.062 9.653A.228.228 0 0 0 1 9.818v7.962a.21.21 0 0 0 .222.22h17.203a.228.228 0 0 0 .167-.061l1.603-1.606a.222.222 0 0 0 .062-.162V8.209a.23.23 0 0 0-.23-.23zM17.701.472l-1.137 1.14h-3.625l1.138-1.14h3.624zm.316.317v7.295l-1.1 1.138V1.927l1.1-1.138zM8.31 2.083h2.633v1.232a.213.213 0 0 0 .223.222h2.418a.219.219 0 0 0 .228-.222V2.083h2.633V9.59h-2.712V7.628a.232.232 0 0 0-.402-.162l-.2.212-.21-.217a.236.236 0 0 0-.168-.072h-.001a.239.239 0 0 0-.169.073l-.209.216-.208-.216a.235.235 0 0 0-.169-.073.238.238 0 0 0-.169.072l-.21.216-.202-.212a.226.226 0 0 0-.252-.056.23.23 0 0 0-.142.22v1.96H8.31V2.084zM9.787.472h3.623l-1.138 1.14H8.676L9.787.472zm3.553 1.611v.983h-1.925v-.983h1.925zm4.834 15.445h-2.672v-1.91a.234.234 0 0 0-.405-.163l-.202.212-.21-.222a.243.243 0 0 0-.168-.078.242.242 0 0 0-.17.079l-.208.218-.209-.22a.241.241 0 0 0-.168-.077h-.001a.242.242 0 0 0-.168.078l-.211.218-.202-.21a.222.222 0 0 0-.25-.056.23.23 0 0 0-.14.22v1.911h-2.712v-4.52a.236.236 0 0 0-.471 0v4.52H6.895v-1.91a.242.242 0 0 0-.416-.163l-.202.212-.212-.222a.245.245 0 0 0-.169-.078.242.242 0 0 0-.169.079l-.209.218-.208-.22a.241.241 0 0 0-.169-.077.242.242 0 0 0-.169.078l-.21.218-.202-.21a.242.242 0 0 0-.416.164v1.911H1.47v-7.467h2.594v1.243c.003.134.11.244.244.25h2.418a.258.258 0 0 0 .246-.25V10.06h2.634v1.376a.236.236 0 1 0 .471 0V10.06h2.633v1.243c0 .13.089.25.219.25h2.418c.13 0 .232-.12.232-.25V10.06h2.594v7.467zm-6.68-7.938V8.212c.036.026.08.04.124.041a.236.236 0 0 0 .168-.07l.211-.217.209.216a.235.235 0 0 0 .338 0l.21-.216.212.217c.044.045.104.07.167.07a.225.225 0 0 0 .128-.041V9.59h-1.768zM7.837 8.45v1.14H6.083L7.22 8.45h.618zM6.502 10.06v1.022H4.537V10.06h1.965zM2.929 8.45h3.625L5.416 9.59H1.79L2.93 8.45zm3.494 9.078H4.615v-1.327a.245.245 0 0 0 .31-.03l.213-.216.21.216a.237.237 0 0 0 .34 0l.21-.216.211.216c.048.046.11.072.176.071.05 0 .097-.015.138-.041v1.327zm8.607 0h-1.769v-1.327c.036.026.08.04.125.041a.231.231 0 0 0 .166-.07l.21-.217.209.216a.235.235 0 0 0 .338 0l.209-.216.213.216a.233.233 0 0 0 .3.03v1.327zm-1.847-7.467h1.926v1.022h-1.926V10.06zm5.145-.471l-1.174-.002 1.17-1.138h1.137l-1.133 1.14zm1.457 6.483l-1.14 1.122V9.916l1.14-1.124v7.281z"/></svg></svg>