<svg xmlns="http://www.w3.org/2000/svg" width="32.484" height="24.264" viewBox="0 0 32.484 24.264">
  <g id="open-menu_1_" data-name="open-menu (1)" transform="translate(0.5 -50.5)">
    <path id="Path_1167" data-name="Path 1167" d="M30.172,128.163H1.312c-.724,0-1.312-1.231-1.312-2.748s.588-2.748,1.312-2.748h28.86c.724,0,1.312,1.231,1.312,2.748S30.9,128.163,30.172,128.163Zm0,0" transform="translate(0 -62.783)" fill="#001d53" stroke="#fff" stroke-width="1"/>
    <path id="Path_1168" data-name="Path 1168" d="M30.172,5.5H1.312C.588,5.5,0,4.264,0,2.748S.588,0,1.312,0h28.86c.724,0,1.312,1.231,1.312,2.748S30.9,5.5,30.172,5.5Zm0,0" transform="translate(0 51)" fill="#001d53" stroke="#fff" stroke-width="1"/>
    <path id="Path_1169" data-name="Path 1169" d="M30.172,250.827H1.312C.588,250.827,0,249.6,0,248.08s.588-2.748,1.312-2.748h28.86c.724,0,1.312,1.231,1.312,2.748S30.9,250.827,30.172,250.827Zm0,0" transform="translate(0 -176.563)" fill="#001d53" stroke="#fff" stroke-width="1"/>
  </g>
</svg>
