<svg xmlns="http://www.w3.org/2000/svg" width="14.567" height="18.161" viewBox="0 0 14.567 18.161">
  <path id="Path_59" data-name="Path 59" d="M54.48,0A7.289,7.289,0,0,0,47.2,7.28a7.165,7.165,0,0,0,.129,1.367c0,.027.019.107.049.244a7.169,7.169,0,0,0,.487,1.435,20.407,20.407,0,0,0,6.294,7.721.516.516,0,0,0,.647,0A20.446,20.446,0,0,0,61.1,10.326a7.089,7.089,0,0,0,.487-1.435c.03-.137.046-.217.049-.244a7.487,7.487,0,0,0,.129-1.367A7.3,7.3,0,0,0,54.48,0Zm6.137,8.468c0,.008,0,.015,0,.023s-.015.076-.034.164v.008A6.044,6.044,0,0,1,60.156,9.9s0,.011-.008.015a19.045,19.045,0,0,1-5.669,7.066,19.045,19.045,0,0,1-5.669-7.066s0-.011-.008-.015a6.448,6.448,0,0,1-.423-1.241V8.654c-.023-.088-.03-.145-.034-.164s0-.015,0-.027a6.251,6.251,0,1,1,12.275,0Z" transform="translate(-47.2 0)" fill="#001d53"/>
  <path id="Path_60" data-name="Path 60" d="M121.622,71.9a4.622,4.622,0,1,0,4.622,4.622A4.629,4.629,0,0,0,121.622,71.9Zm0,8.216a3.594,3.594,0,1,1,3.594-3.594A3.6,3.6,0,0,1,121.622,80.116Z" transform="translate(-114.342 -69.163)" fill="#001d53"/>
</svg>
