<svg width="139" height="139" viewBox="0 0 139 139" fill="none" xmlns="http://www.w3.org/2000/svg">
<path fill-rule="evenodd" clip-rule="evenodd" d="M87.729 1.96402C95.502 5.49202 95.992 7.28601 95.996 32.25L96 54H93.607C92.291 54 90.941 53.288 90.607 52.418C90.273 51.548 90 42.123 90 31.474C90 12.45 89.958 12.062 87.588 9.30602L85.175 6.50002L49.885 6.21202C11.711 5.90102 10.037 6.09402 7.453 11.091C5.242 15.367 5.29101 123.728 7.50601 128.011C9.98901 132.812 13.049 133.151 50.838 132.81L85.175 132.5L87.588 129.694C89.962 126.932 90 126.579 90 107.016C90 90.517 90.26 86.883 91.529 85.614C92.37 84.773 93.72 84.339 94.529 84.649C95.761 85.122 95.999 88.728 95.996 106.857C95.992 131.886 95.522 133.555 87.474 137.115C83.24 138.987 81.055 139.077 46.572 138.797C11.582 138.512 10.034 138.419 7.383 136.438C5.866 135.304 3.696 133.134 2.56201 131.616C0.545005 128.915 0.494004 127.627 0.206004 72.177C0.0440041 41.005 0.175005 14.051 0.496005 12.279C1.223 8.26502 5.43001 3.15802 9.45001 1.40702C11.795 0.386016 20.712 0.0740174 48 0.0610174C80.892 0.0450174 83.811 0.185017 87.729 1.96402ZM128.645 58.19C134.34 63.794 139 68.884 139 69.5C139 70.116 134.332 75.214 128.627 80.828C121.569 87.773 117.759 90.845 116.705 90.44C113.171 89.084 114.043 86.761 120.66 79.907L127.328 73H83.598C39.845 73 36 72.717 36 69.5C36 66.283 39.845 66 83.598 66H127.328L120.664 59.097C116.999 55.301 114 51.958 114 51.669C114 50.959 116.997 48 117.716 48C118.032 48 122.95 52.585 128.645 58.19Z" fill="inherit"/>
</svg>
