<svg xmlns="http://www.w3.org/2000/svg" width="39.126" height="55.645" viewBox="0 0 39.126 55.645">
  <g id="pin_1_" data-name="pin (1)" transform="translate(0)">
    <path id="Path_1235" data-name="Path 1235" d="M179.81,0a19.578,19.578,0,0,0-19.563,19.563,19.291,19.291,0,0,0,2.935,10.271l15.3,25.042a1.545,1.545,0,0,0,1.109.75,1.623,1.623,0,0,0,1.663-.783L196.6,29.572a19.294,19.294,0,0,0,2.771-10.01A19.578,19.578,0,0,0,179.81,0Zm0,29.344a9.781,9.781,0,1,1,9.781-9.781A9.768,9.768,0,0,1,179.81,29.344Z" transform="translate(-160.248)" fill="#fd003a"/>
    <path id="Path_1236" data-name="Path 1236" d="M539.781,0V9.781a9.781,9.781,0,0,1,0,19.563v26.3a1.614,1.614,0,0,0,1.445-.8l15.346-25.27a19.293,19.293,0,0,0,2.771-10.01A19.578,19.578,0,0,0,539.781,0Z" transform="translate(-520.218)" fill="#e50027"/>
  </g>
</svg>
