<svg xmlns="http://www.w3.org/2000/svg" width="15.618" height="15.616" viewBox="0 0 15.618 15.616">
  <path id="Path_24" data-name="Path 24" d="M14.606,1.039a3.444,3.444,0,0,0-4.875,0L.793,9.974a.447.447,0,0,0-.126.256L0,15.135a.446.446,0,0,0,.126.376.455.455,0,0,0,.316.133.362.362,0,0,0,.06,0l2.955-.4a.45.45,0,1,0-.12-.892l-2.369.319.463-3.421,3.6,3.6a.455.455,0,0,0,.316.133.441.441,0,0,0,.316-.133l8.938-8.935a3.442,3.442,0,0,0,0-4.875Zm-4.7,1.1,1.5,1.5L3.249,11.794l-1.5-1.5ZM5.356,13.9,3.888,12.429l8.156-8.156,1.467,1.467Zm8.782-8.8L10.547,1.508A2.551,2.551,0,0,1,14.137,5.1Z" transform="translate(0 -0.028)" fill="#001d53"/>
</svg>
