<svg xmlns="http://www.w3.org/2000/svg" width="59.513" height="58.934" viewBox="0 0 59.513 58.934">
  <path id="add" d="M50.214,0H9.3C4.171,0,0,4.443,0,9.9V44.572c0,5.462,4.171,9.9,9.3,9.9H31.384a2.316,2.316,0,0,0,2.087-1.386,2.609,2.609,0,0,0-.249-2.606l-6.081-8.371L43.995,19.281,54.863,33.092v4.176a2.329,2.329,0,1,0,4.649,0V9.9c0-5.462-4.171-9.9-9.3-9.9Zm-4.5,13.762a2.237,2.237,0,0,0-3.609.06l-17.9,24.254-6.1-8.391a2.276,2.276,0,0,0-1.838-.961h0a2.277,2.277,0,0,0-1.839.966L9.314,36.775a2.585,2.585,0,0,0,.425,3.473A2.231,2.231,0,0,0,13,39.795l3.279-4.54,10.367,14.27H9.3a4.814,4.814,0,0,1-4.649-4.952V9.9A4.814,4.814,0,0,1,9.3,4.952H50.214A4.814,4.814,0,0,1,54.863,9.9V25.382ZM16.273,8.914A7.22,7.22,0,0,0,9.3,16.343a7.22,7.22,0,0,0,6.974,7.429,7.22,7.22,0,0,0,6.974-7.429A7.22,7.22,0,0,0,16.273,8.914Zm0,9.9A2.481,2.481,0,1,1,18.6,16.343,2.407,2.407,0,0,1,16.273,18.819Zm43.24,28.353a2.4,2.4,0,0,1-2.325,2.476H50.795v6.81a2.329,2.329,0,1,1-4.649,0v-6.81H39.753a2.481,2.481,0,0,1,0-4.952h6.393v-6.81a2.329,2.329,0,1,1,4.649,0V44.7h6.393A2.4,2.4,0,0,1,59.513,47.172Zm0,0" transform="translate(0 0)" fill="#001d53" opacity="0.07"/>
</svg>
