<svg width="inherit" height="inherit" xmlns="http://www.w3.org/2000/svg" xmlnsXlink="http://www.w3.org/1999/xlink" xmlnsSvgjs="http://svgjs.com/svgjs" viewBox="203 130 19 18"><svg width="10" height="10" xmlns="http://www.w3.org/2000/svg" xmlnsXlink="http://www.w3.org/1999/xlink" xmlnsSvgjs="http://svgjs.com/svgjs" viewBox="0.001 0 9.998 10" fill="#021a53" x="207" y="134"><svg xmlns="http://www.w3.org/2000/svg" xmlnsXlink="http://www.w3.org/1999/xlink" width="10" height="10" viewBox="0.098 0.217 9.777 9.779"><path paint-order="stroke fill markers" fill-rule="evenodd" d="M9.46 4.59H5.5V.63a.414.414 0 0 0-.827 0v3.96H.512a.414.414 0 1 0 0 .827h4.166v4.166a.413.413 0 1 0 .827 0V5.417h3.959a.414.414 0 1 0-.005-.827z"/></svg></svg><svg width="19" height="18" xmlns="http://www.w3.org/2000/svg" xmlnsXlink="http://www.w3.org/1999/xlink" xmlnsSvgjs="http://svgjs.com/svgjs" viewBox="0.5 0 18 18" fill="#021a53" x="203" y="130"><svg xmlns="http://www.w3.org/2000/svg" width="19" height="18" viewBox="0 0 18 18"><path paint-order="stroke fill markers" fill-rule="evenodd" d="M9 0a8.999 8.999 0 0 0-6.363 15.364A9 9 0 0 0 15.364 2.637 8.945 8.945 0 0 0 9.001 0zm0 17.164c-4.5 0-8.163-3.663-8.163-8.163S4.5.837 9.001.837c4.5 0 8.163 3.663 8.163 8.164 0 4.5-3.663 8.163-8.163 8.163z"/></svg></svg></svg>