<svg xmlns="http://www.w3.org/2000/svg" width="17.857" height="17.857" viewBox="0 0 17.857 17.857">
  <path id="Path_1140" data-name="Path 1140" d="M12.4.231a.782.782,0,0,0-1.11,0L6.313,5.2,1.34.231A.785.785,0,0,0,.231,1.34L5.2,6.313.231,11.286a.782.782,0,0,0,0,1.11.789.789,0,0,0,.552.232.765.765,0,0,0,.552-.232L6.307,7.423,11.28,12.4a.789.789,0,0,0,.552.232.756.756,0,0,0,.552-.232.782.782,0,0,0,0-1.11L7.423,6.313,12.4,1.34A.782.782,0,0,0,12.4.231Z" transform="translate(0 8.928) rotate(-45)" fill="#001d53"/>
</svg>
