<svg width="321" height="320" viewBox="0 0 321 320" fill="none" xmlns="http://www.w3.org/2000/svg">
<path fill-rule="evenodd" clip-rule="evenodd" d="M179.026 1.05305C198.268 3.44405 213.691 7.92005 230.564 16.012C275.952 37.779 308.032 79.577 318.183 130.172C321.443 146.424 321.443 173.576 318.183 189.828C305.059 255.242 256.242 304.059 190.828 317.183C174.576 320.443 147.424 320.443 131.172 317.183C80.5769 307.032 38.7789 274.952 17.0119 229.564C-4.77112 184.141 -4.38713 133.819 18.0889 88.5C41.8169 40.656 88.0639 8.03305 142 1.09005C151.523 -0.135951 169.317 -0.15395 179.026 1.05305ZM148.105 43.583C125.027 49.788 109.403 73.7321 112.965 97.4341C116.52 121.088 137.204 138.976 161 138.976C184.796 138.976 205.48 121.088 209.035 97.4341C212.624 73.5551 196.827 49.618 173.465 43.533C166.192 41.639 155.254 41.66 148.105 43.583ZM176.25 59.334C183.033 62.653 189.315 69.287 192.811 76.825C194.951 81.438 195.449 84.001 195.472 90.521C195.497 97.599 195.114 99.327 192.213 105.218C188.573 112.613 182.73 118.43 175.216 122.14C168.383 125.514 153.617 125.514 146.784 122.14C139.27 118.43 133.427 112.613 129.787 105.218C126.886 99.327 126.503 97.599 126.528 90.521C126.561 81.156 129.308 73.985 135.482 67.152C142.923 58.916 150.554 55.869 162.608 56.322C168.977 56.561 171.904 57.207 176.25 59.334ZM147.539 154.042C133.351 156.276 117.522 163.099 105.689 172.081C85.1069 187.703 70.9999 215.244 70.9999 239.803C70.9999 247.646 72.5409 250 77.6739 250C82.3369 250 83.6439 247.578 84.9119 236.593C86.2999 224.572 89.7409 213.848 95.2119 204.5C100.097 196.152 113.185 182.908 121.257 178.145C146.307 163.365 175.693 163.365 200.743 178.145C208.815 182.908 221.903 196.152 226.788 204.5C232.259 213.848 235.7 224.572 237.088 236.593C238.368 247.681 239.65 250 244.5 250C250.254 250 251.381 247.503 250.705 236.26C248.439 198.601 220.683 165.564 183.198 155.909C174.251 153.604 156.291 152.664 147.539 154.042Z" fill="#FFFAF4"/>
</svg>
