<svg xmlns="http://www.w3.org/2000/svg" width="23.925" height="23.937" viewBox="0 0 23.925 23.937">
  <g id="role" transform="translate(-0.471 0)">
    <path id="Path_1212" data-name="Path 1212" d="M95.865,37.692H94.671V35.3a.4.4,0,1,0-.8,0V38.09a.4.4,0,0,0,.4.4h1.592a.4.4,0,0,0,0-.8Zm0,0" transform="translate(-88.977 -33.252)" fill="inherit"/>
    <path id="Path_1213" data-name="Path 1213" d="M23.2,3.644H23a3.376,3.376,0,0,0-.146-.352L23,3.15a1.194,1.194,0,0,0-.84-2.039h0a1.184,1.184,0,0,0-.844.352l-.142.142a3.418,3.418,0,0,0-.352-.146v-.2a1.194,1.194,0,1,0-2.387,0v.2a3.4,3.4,0,0,0-.352.146l-.142-.142a1.185,1.185,0,0,0-.844-.352h0a1.194,1.194,0,0,0-.84,2.039l.142.142a3.418,3.418,0,0,0-.146.352h-.2a1.194,1.194,0,0,0,0,2.387h.2a3.418,3.418,0,0,0,.146.352l-.142.142a1.178,1.178,0,0,0-.233,1.357L14.471,9.425a3.541,3.541,0,0,0-1.847-.609h-.37a3.525,3.525,0,0,0-1.8.589l-1.5-1.5a4.806,4.806,0,1,0-.561.563l1.5,1.5a1.992,1.992,0,0,0-.324,1.013c0,.09-.006.169-.009.251a1.088,1.088,0,0,0-.536,0c-.555.146-.616.869-.483,1.521A1.925,1.925,0,0,0,9.728,13.91a1.759,1.759,0,0,0,.69,1.576c.051.043.1.085.139.128a5.909,5.909,0,0,1-.815,1.577,4.62,4.62,0,0,0-2.785,1.223,3.721,3.721,0,0,0-.864,2.638c0,2.805,5.715,2.885,6.367,2.885s6.366-.079,6.366-2.885a3.722,3.722,0,0,0-.864-2.636,4.621,4.621,0,0,0-2.785-1.223,5.783,5.783,0,0,1-.82-1.6c.038-.036.076-.073.119-.11a1.766,1.766,0,0,0,.69-1.6,1.929,1.929,0,0,0,1.213-1.146c.14-.634.083-1.362-.5-1.508a1.213,1.213,0,0,0-.541,0c0-.082,0-.159-.01-.25A1.985,1.985,0,0,0,15.02,10l1.557-1.558a1.183,1.183,0,0,0,.511.119h0a1.183,1.183,0,0,0,.844-.352l.142-.142a3.482,3.482,0,0,0,.351.145v.2a1.194,1.194,0,1,0,2.387,0v-.2a3.418,3.418,0,0,0,.352-.146l.142.142a1.129,1.129,0,0,0,.846.352A1.194,1.194,0,0,0,23,6.525l-.142-.142A3.458,3.458,0,0,0,23,6.031h.2a1.194,1.194,0,0,0,0-2.387ZM1.317,4.838A3.979,3.979,0,1,1,5.3,8.817,3.979,3.979,0,0,1,1.317,4.838Zm8,7.739A1.726,1.726,0,0,1,9.291,12a.6.6,0,0,1,.27.085,5.555,5.555,0,0,0,.115.893,1.083,1.083,0,0,1-.361-.4Zm4.457,3.737a8.622,8.622,0,0,0,.557,1.027,7.92,7.92,0,0,1-1.87.328,7.926,7.926,0,0,1-1.866-.329,8.679,8.679,0,0,0,.548-1.009,1.173,1.173,0,0,0,.952.443H12.8a1.18,1.18,0,0,0,.968-.461Zm-1.313,4.219a6.568,6.568,0,0,1-1.925-2.383,8.263,8.263,0,0,0,1.925.315,8.244,8.244,0,0,0,1.924-.315A6.561,6.561,0,0,1,12.459,20.533Zm5.571.517c0,1.7-4.125,2.091-5.571,2.091s-5.571-.384-5.571-2.089a2.971,2.971,0,0,1,.649-2.091A3.823,3.823,0,0,1,9.646,18a6.766,6.766,0,0,0,2.565,3.36l.032.016a.381.381,0,0,0,.071.036.375.375,0,0,0,.07.022.419.419,0,0,0,.076.006.391.391,0,0,0,.074-.006.452.452,0,0,0,.142-.059.246.246,0,0,0,.032-.016A6.778,6.778,0,0,0,15.274,18a3.823,3.823,0,0,1,2.109.958,2.973,2.973,0,0,1,.647,2.091Zm-4.067-6.172a3.823,3.823,0,0,0-.646.72c-.226.308-.288.38-.517.38h-.707c-.228,0-.29-.073-.517-.38a3.8,3.8,0,0,0-.646-.72,1.055,1.055,0,0,1-.4-1.084c.005-.1.011-.209.011-.318a2.857,2.857,0,0,0-.08-.627,6.258,6.258,0,0,1-.1-1.825c.069-1.319,1.847-1.41,1.906-1.413h.339c.018,0,1.853.087,1.921,1.414a6.207,6.207,0,0,1-.1,1.825,2.894,2.894,0,0,0-.079.627c0,.108.005.214.01.318a1.052,1.052,0,0,1-.4,1.083Zm1.647-2.342a1.027,1.027,0,0,1-.389.423,5.558,5.558,0,0,0,.113-.9A.582.582,0,0,1,15.626,12,1.573,1.573,0,0,1,15.609,12.537Zm7.991-7.7a.4.4,0,0,1-.4.4h-.351a.593.593,0,0,0-.567.423,2.677,2.677,0,0,1-.2.483.593.593,0,0,0,.1.7l.248.246a.4.4,0,0,1-.279.679.394.394,0,0,1-.281-.117L21.63,7.4a.594.594,0,0,0-.7-.1,2.688,2.688,0,0,1-.483.2.593.593,0,0,0-.425.569v.351a.4.4,0,1,1-.8,0V8.067A.593.593,0,0,0,18.8,7.5a2.672,2.672,0,0,1-.484-.2.608.608,0,0,0-.284-.071.588.588,0,0,0-.418.174l-.246.247a.4.4,0,1,1-.56-.561l.247-.246a.592.592,0,0,0,.1-.7,2.679,2.679,0,0,1-.2-.483.594.594,0,0,0-.571-.422H16.04a.4.4,0,0,1,0-.8h.351a.594.594,0,0,0,.567-.423,2.667,2.667,0,0,1,.2-.483.593.593,0,0,0-.1-.7l-.247-.246a.4.4,0,1,1,.56-.561l.246.248a.594.594,0,0,0,.7.1,2.677,2.677,0,0,1,.483-.2.594.594,0,0,0,.425-.569V1.256a.4.4,0,0,1,.8,0v.351a.593.593,0,0,0,.423.567,2.677,2.677,0,0,1,.483.2.592.592,0,0,0,.7-.1l.246-.247a.4.4,0,1,1,.56.561l-.248.246a.592.592,0,0,0-.1.7,2.679,2.679,0,0,1,.2.483.594.594,0,0,0,.571.424H23.2a.4.4,0,0,1,.4.4Zm0,0" fill="inherit"/>
    <path id="Path_1214" data-name="Path 1214" d="M364.455,60.086a1.989,1.989,0,1,0,1.989,1.99A1.99,1.99,0,0,0,364.455,60.086Zm0,3.183a1.194,1.194,0,1,1,.844-.35A1.194,1.194,0,0,1,364.455,63.269Zm0,0" transform="translate(-344.834 -57.238)" fill="inherit"/>
  </g>
</svg>
