<svg width="104" height="117" viewBox="0 0 104 117" fill="none" xmlns="http://www.w3.org/2000/svg">
<path d="M103.03 45.4C103.03 51.73 102.59 58.1 103.12 64.39C104.27 78.02 98.1699 88.19 88.4499 96.68C78.7099 105.18 67.7299 111.74 55.5199 116.04C53.3699 116.8 50.4999 116.95 48.3999 116.2C34.1299 111.06 21.3799 103.41 10.7399 92.44C3.82992 85.31 0.149918 77.05 0.369918 66.86C0.709918 51.54 0.579919 36.2 0.379919 20.87C0.319919 16.79 1.77992 14.99 5.64992 13.89C19.7099 9.89003 33.6399 5.44 47.6999 1.46C50.2299 0.740004 53.3099 0.800001 55.8499 1.52C69.9099 5.51 83.8499 9.93001 97.9099 13.93C101.77 15.03 103.27 16.82 103.12 20.92C102.81 29.06 103.03 37.24 103.03 45.4ZM97.8699 19.39C82.9499 14.92 68.1999 10.43 53.3899 6.16002C51.7899 5.70002 49.7599 6.22 48.0599 6.71C35.2999 10.44 22.5999 14.37 9.81992 18.01C6.74992 18.89 5.61992 20.23 5.64992 23.51C5.81992 38.84 5.35992 54.19 5.93992 69.5C6.11992 74.36 7.77992 79.86 10.5499 83.82C20.2499 97.69 34.5499 105.53 49.9999 111.44C51.3399 111.95 53.2799 111.53 54.7299 110.98C66.0699 106.76 76.4099 100.76 85.3699 92.62C91.4699 87.08 97.4399 80.84 97.6999 72.17C98.2299 54.68 97.8699 37.19 97.8699 19.39Z" fill="black"/>
<path d="M46.7799 72.39C56.5199 62.64 65.6699 53.47 74.8299 44.3C75.7699 43.36 76.5599 42.11 77.6899 41.56C79.2199 40.82 81.0099 40.61 82.6899 40.18C82.1499 41.89 81.9199 43.8 80.9899 45.25C79.9399 46.89 78.2499 48.13 76.8399 49.54C68.1399 58.24 59.3499 66.86 50.7899 75.69C47.9299 78.65 45.8599 78.74 43.0299 75.71C38.0399 70.37 32.6199 65.42 27.6499 60.06C26.4599 58.78 26.2999 56.56 25.6599 54.76C27.4499 55.31 29.7199 55.34 30.9499 56.49C36.2599 61.5 41.2799 66.81 46.7799 72.39Z" fill="black"/>
</svg>
