<svg xmlns="http://www.w3.org/2000/svg" width="18.674" height="19.462" viewBox="0 0 18.674 19.462">
  <path id="Path_1255" data-name="Path 1255" d="M17.168,228.235a.539.539,0,0,0-.506.571V234a2.43,2.43,0,0,1-2.269,2.558H3.282A2.43,2.43,0,0,1,1.013,234v-5.276a.539.539,0,0,0-.506-.571.539.539,0,0,0-.506.571V234a3.513,3.513,0,0,0,3.282,3.7h11.11a3.513,3.513,0,0,0,3.282-3.7v-5.192A.542.542,0,0,0,17.168,228.235Z" transform="translate(0.5 -218.734)" fill="#fff" stroke="#fff" stroke-width="1"/>
  <path id="Path_1256" data-name="Path 1256" d="M139.6,31.18a.483.483,0,0,0,.356.169.468.468,0,0,0,.356-.169l3.218-3.627a.621.621,0,0,0,0-.807.466.466,0,0,0-.716,0L140.459,29.4V17.821a.51.51,0,1,0-1.013,0V29.4l-2.356-2.655a.466.466,0,0,0-.716,0,.621.621,0,0,0,0,.807Z" transform="translate(-130.615 -16.75)" fill="#fff" stroke="#fff" stroke-width="1"/>
</svg>
