<svg width="273" height="59" viewBox="0 0 273 59" fill="none" xmlns="http://www.w3.org/2000/svg">
<rect width="273" height="59" rx="29" fill="#002051"/>
<path d="M205 0L205 58" stroke="white"/>
<path d="M234.5 24.5604L223.093 36.4472C222.927 36.622 222.728 36.761 222.508 36.856C222.288 36.951 222.051 37 221.812 37C221.572 37 221.336 36.951 221.115 36.856C220.895 36.761 220.696 36.622 220.53 36.4472C220.19 36.088 220 35.6096 220 35.1118C220 34.6141 220.19 34.1356 220.53 33.7765L233.218 20.5528C233.384 20.378 233.583 20.239 233.803 20.144C234.023 20.049 234.26 20 234.499 20C234.739 20 234.975 20.049 235.196 20.144C235.416 20.239 235.615 20.378 235.781 20.5528L248.47 33.7765C248.81 34.1356 249 34.6141 249 35.1118C249 35.6096 248.81 36.088 248.47 36.4472C248.304 36.622 248.105 36.761 247.885 36.856C247.664 36.951 247.428 37 247.188 37C246.949 37 246.712 36.951 246.492 36.856C246.272 36.761 246.073 36.622 245.907 36.4472L234.5 24.5604Z" fill="white"/>
<path d="M108.512 40.196C107.205 40.196 106.029 39.972 104.984 39.524C103.939 39.0573 103.117 38.404 102.52 37.564C101.923 36.724 101.624 35.744 101.624 34.624H105.04C105.115 35.464 105.441 36.1547 106.02 36.696C106.617 37.2373 107.448 37.508 108.512 37.508C109.613 37.508 110.472 37.2467 111.088 36.724C111.704 36.1827 112.012 35.492 112.012 34.652C112.012 33.9987 111.816 33.4667 111.424 33.056C111.051 32.6453 110.575 32.328 109.996 32.104C109.436 31.88 108.652 31.6373 107.644 31.376C106.375 31.04 105.339 30.704 104.536 30.368C103.752 30.0133 103.08 29.472 102.52 28.744C101.96 28.016 101.68 27.0453 101.68 25.832C101.68 24.712 101.96 23.732 102.52 22.892C103.08 22.052 103.864 21.408 104.872 20.96C105.88 20.512 107.047 20.288 108.372 20.288C110.257 20.288 111.797 20.764 112.992 21.716C114.205 22.6493 114.877 23.9373 115.008 25.58H111.48C111.424 24.8707 111.088 24.264 110.472 23.76C109.856 23.256 109.044 23.004 108.036 23.004C107.121 23.004 106.375 23.2373 105.796 23.704C105.217 24.1707 104.928 24.8427 104.928 25.72C104.928 26.3173 105.105 26.812 105.46 27.204C105.833 27.5773 106.3 27.876 106.86 28.1C107.42 28.324 108.185 28.5667 109.156 28.828C110.444 29.1827 111.489 29.5373 112.292 29.892C113.113 30.2467 113.804 30.7973 114.364 31.544C114.943 32.272 115.232 33.252 115.232 34.484C115.232 35.4733 114.961 36.4067 114.42 37.284C113.897 38.1613 113.123 38.8707 112.096 39.412C111.088 39.9347 109.893 40.196 108.512 40.196ZM117.934 32.216C117.934 30.6667 118.252 29.2947 118.886 28.1C119.54 26.9053 120.417 25.9813 121.518 25.328C122.638 24.656 123.87 24.32 125.214 24.32C126.428 24.32 127.482 24.5627 128.378 25.048C129.293 25.5147 130.021 26.1027 130.562 26.812V24.572H133.782V40H130.562V37.704C130.021 38.432 129.284 39.0387 128.35 39.524C127.417 40.0093 126.353 40.252 125.158 40.252C123.833 40.252 122.62 39.916 121.518 39.244C120.417 38.5533 119.54 37.6013 118.886 36.388C118.252 35.156 117.934 33.7653 117.934 32.216ZM130.562 32.272C130.562 31.208 130.338 30.284 129.89 29.5C129.461 28.716 128.892 28.1187 128.182 27.708C127.473 27.2973 126.708 27.092 125.886 27.092C125.065 27.092 124.3 27.2973 123.59 27.708C122.881 28.1 122.302 28.688 121.854 29.472C121.425 30.2373 121.21 31.152 121.21 32.216C121.21 33.28 121.425 34.2133 121.854 35.016C122.302 35.8187 122.881 36.4347 123.59 36.864C124.318 37.2747 125.084 37.48 125.886 37.48C126.708 37.48 127.473 37.2747 128.182 36.864C128.892 36.4533 129.461 35.856 129.89 35.072C130.338 34.2693 130.562 33.336 130.562 32.272ZM143.939 37.144L148.307 24.572H151.695L145.815 40H142.007L136.155 24.572H139.571L143.939 37.144ZM168.248 31.908C168.248 32.4867 168.21 33.0093 168.136 33.476H156.348C156.441 34.708 156.898 35.6973 157.72 36.444C158.541 37.1907 159.549 37.564 160.744 37.564C162.461 37.564 163.674 36.8453 164.384 35.408H167.828C167.361 36.8267 166.512 37.9933 165.28 38.908C164.066 39.804 162.554 40.252 160.744 40.252C159.269 40.252 157.944 39.9253 156.768 39.272C155.61 38.6 154.696 37.6667 154.024 36.472C153.37 35.2587 153.044 33.8587 153.044 32.272C153.044 30.6853 153.361 29.2947 153.996 28.1C154.649 26.8867 155.554 25.9533 156.712 25.3C157.888 24.6467 159.232 24.32 160.744 24.32C162.2 24.32 163.497 24.6373 164.636 25.272C165.774 25.9067 166.661 26.8027 167.296 27.96C167.93 29.0987 168.248 30.4147 168.248 31.908ZM164.916 30.9C164.897 29.724 164.477 28.7813 163.656 28.072C162.834 27.3627 161.817 27.008 160.604 27.008C159.502 27.008 158.56 27.3627 157.776 28.072C156.992 28.7627 156.525 29.7053 156.376 30.9H164.916Z" fill="white"/>
</svg>
