<svg width="118" height="118" viewBox="0 0 118 118" fill="none" xmlns="http://www.w3.org/2000/svg">
<path d="M24.5301 10.26C24.6401 8.25001 24.4501 6.54 24.9001 5.03C25.3501 3.5 26.4401 2.16001 27.2501 0.730011C28.1801 2.24001 29.3701 3.65 29.9501 5.28C30.4201 6.61 30.1701 8.21 30.2501 9.97C49.5301 9.97 68.5901 9.97 88.2001 9.97C88.2001 7.81 87.9201 5.81 88.3001 3.94C88.5401 2.76 89.7901 1.79 90.5801 0.720001C91.4701 1.75 92.8601 2.67001 93.1401 3.85001C93.5701 5.71001 93.2601 7.74999 93.2601 10.27C97.3401 10.27 100.96 10.2 104.58 10.29C112.37 10.48 117.39 15.44 117.41 23.18C117.47 50.48 117.47 77.79 117.4 105.09C117.38 112.43 112.57 117.44 105.27 117.46C74.4701 117.56 43.6701 117.56 12.8701 117.47C5.67006 117.45 0.500078 112.48 0.450078 105.22C0.290078 77.75 0.290078 50.28 0.450078 22.81C0.490078 15.39 5.83008 10.5 13.2601 10.29C16.8801 10.17 20.5201 10.26 24.5301 10.26ZM6.02005 44.77C5.78006 45.61 5.54007 46.07 5.54007 46.53C5.51007 65.86 5.42007 85.2 5.54007 104.53C5.57007 109.9 8.51007 112.35 14.3201 112.36C43.9901 112.39 73.6501 112.39 103.32 112.36C109.93 112.35 112.29 109.96 112.3 103.33C112.33 87.16 112.31 71 112.31 54.83C112.31 51.55 112.31 48.27 112.31 44.76C76.5801 44.77 41.4701 44.77 6.02005 44.77ZM88.1901 15.64C68.5901 15.64 49.5301 15.64 30.2501 15.64C30.1501 17.88 30.3501 19.94 29.8701 21.82C29.5601 23.03 28.2501 23.99 27.3901 25.06C26.5501 24 25.2501 23.05 24.9601 21.86C24.4801 19.86 24.6401 17.7 24.5201 15.38C20.3401 15.38 16.6801 15.26 13.0401 15.41C8.79007 15.58 5.98008 17.99 5.67008 22.12C5.26008 27.69 5.57007 33.32 5.57007 39.09C41.3401 39.09 76.5601 39.09 112.1 39.09C112.18 37.55 112.29 36.26 112.29 34.96C112.3 30.63 112.97 26.14 111.99 22.03C111.4 19.53 108.57 16.39 106.17 15.76C102.19 14.72 97.7401 15.48 93.2501 15.48C93.2501 17.94 93.6101 19.87 93.1401 21.56C92.7701 22.87 91.3701 23.89 90.4301 25.05C89.6801 23.94 88.5101 22.91 88.2801 21.69C87.9201 19.82 88.1901 17.81 88.1901 15.64Z" fill="inherit"/>
<path d="M83.2301 63.77C83.3001 53.12 82.0501 54.17 92.8701 54.21C103.34 54.25 103.04 52.43 103.01 64.42C102.99 73.89 103.01 73.87 93.4801 73.89C81.5301 73.92 83.3601 74.27 83.2301 63.77ZM97.3201 68.39C97.3201 65.1 97.3201 62.39 97.3201 59.64C94.1601 59.64 91.4301 59.64 88.6901 59.64C88.6901 62.72 88.6901 65.46 88.6901 68.39C91.6501 68.39 94.2501 68.39 97.3201 68.39Z" fill="inherit"/>
<path d="M49.2101 63.73C49.2801 53.04 48.07 54.18 58.86 54.22C69.37 54.25 68.9001 52.48 68.8901 64.49C68.8801 73.9 68.8901 73.89 59.3701 73.91C47.4001 73.91 49.3701 74.27 49.2101 63.73ZM63.2301 68.39C63.2301 65.1 63.2301 62.39 63.2301 59.63C60.1101 59.63 57.3901 59.63 54.6601 59.63C54.6601 62.71 54.6601 65.44 54.6601 68.39C57.6001 68.39 60.1901 68.39 63.2301 68.39Z" fill="inherit"/>
<path d="M49.2101 93.04C49.2601 82.17 48.0901 83.27 59.2301 83.27C69.0001 83.27 68.9401 81.92 68.8901 93.07C68.8501 103.17 68.8801 103.15 58.9601 103.17C47.7101 103.19 49.3201 103.63 49.2101 93.04ZM54.5601 97.75C57.7401 97.75 60.3201 97.75 63.2601 97.75C63.2601 94.63 63.2601 91.78 63.2601 88.74C60.2301 88.74 57.3901 88.74 54.5601 88.74C54.5601 91.88 54.5601 94.64 54.5601 97.75Z" fill="inherit"/>
<path d="M25.2 54.19C35.25 54.29 34.78 52.73 34.72 63.9C34.67 74.45 36.02 73.88 24.89 73.9C13.54 73.92 15.2 74.11 15.2 64.32C15.2 52.78 13.89 54.31 25.2 54.19ZM20.53 68.15C23.8 68.15 26.51 68.15 29.09 68.15C29.09 64.96 29.09 62.26 29.09 59.71C25.92 59.71 23.22 59.71 20.53 59.71C20.53 62.71 20.53 65.32 20.53 68.15Z" fill="inherit"/>
<path d="M15.1801 92.95C15.2401 82.33 14.0601 83.24 24.7501 83.26C35.2701 83.28 34.7401 81.95 34.7301 93.16C34.7201 104.01 35.5201 103.15 24.8001 103.17C13.6401 103.19 15.3001 103.63 15.1801 92.95ZM20.5301 97.75C23.7201 97.75 26.2901 97.75 29.0801 97.75C29.0801 94.52 29.0801 91.56 29.0801 88.75C25.9201 88.75 23.2101 88.75 20.5301 88.75C20.5301 91.89 20.5301 94.64 20.5301 97.75Z" fill="inherit"/>
</svg>
