<svg xmlns="http://www.w3.org/2000/svg" width="23.005" height="23" viewBox="0 0 23.005 23">
    <path id="store"
        d="M21.851,13.041v8.1a1.919,1.919,0,0,1-1.917,1.917H3.068a1.919,1.919,0,0,1-1.917-1.917v-8.1a.383.383,0,0,1,.767,0v8.1a1.151,1.151,0,0,0,1.15,1.15H7.236V15.821A1.919,1.919,0,0,1,9.153,13.9h4.7a1.919,1.919,0,0,1,1.917,1.917v4.935a.383.383,0,1,1-.767,0V15.821a1.151,1.151,0,0,0-1.15-1.15h-4.7A1.151,1.151,0,0,0,8,15.821v6.469h3.115V16.252a.383.383,0,1,1,.767,0v6.037h8.05a1.151,1.151,0,0,0,1.15-1.15v-8.1a.383.383,0,1,1,.767,0ZM2.493,6.189a.383.383,0,0,0,.383.383c20.857,0,19.822.037,19.975-.08A.381.381,0,0,0,23,6.242c.021-.154.159.225-2.519-5.955a.383.383,0,0,0-.352-.231H2.876a.383.383,0,0,0-.352.231L.033,6.037A13.018,13.018,0,0,0,0,8.568a3.161,3.161,0,0,0,5.941,1.506,3.163,3.163,0,0,0,5.559,0,3.163,3.163,0,0,0,5.558,0A3.162,3.162,0,0,0,23,8.567a.383.383,0,1,0-.767,0,2.4,2.4,0,1,1-4.792,0,.383.383,0,1,0-.767,0,2.4,2.4,0,1,1-4.792,0,.383.383,0,0,0-.767,0,2.4,2.4,0,1,1-4.792-.019.383.383,0,0,0-.767,0,2.4,2.4,0,1,1-4.792.019v-2.3L3.128.823H19.874l2.159,4.983H2.876a.383.383,0,0,0-.383.383Z"
        transform="translate(0.001 -0.056)" fill="#001d53" />
</svg>