<svg xmlns="http://www.w3.org/2000/svg" width="1em" viewBox="0 0 63.03 84.17"><title>sctalog1set 2</title><g id="Layer_2" data-name="Layer 2"><g id="Layer_1-2" data-name="Layer 1"><path fill="inherit" d="M63,42q0,16.33,0,32.65c0,5.75-3.62,9.44-9.38,9.46q-16.85.08-33.69,0a3.68,3.68,0,0,1-2.33-1Q9.22,74.91,1,66.51a3.41,3.41,0,0,1-1-2.13Q0,37.2.1,10A13.84,13.84,0,0,1,.58,6C1.76,2.27,4.91.05,9.1,0Q31.51,0,53.94,0C59.46.07,63,3.82,63,9.37Q63.05,25.69,63,42ZM21,80.55c.89,0,1.43.11,2,.11q15.2,0,30.39,0c4.3,0,6.31-2,6.31-6.34q0-32.25,0-64.51c0-4.31-2-6.31-6.33-6.31H9.74c-4.41,0-6.28,1.88-6.28,6.27V63.16c2.85,0,5.41.19,7.93,0A8.93,8.93,0,0,1,21,72.74C20.93,75.27,21,77.81,21,80.55Zm-3.5-3c0-2,.16-4,0-6-.23-2.28-1.47-4.2-3.8-4.57a43.71,43.71,0,0,0-6.84-.08Z"/><path fill="inherit"  d="M31.52,10.63c5.1,0,10.2,0,15.29,0,3.53,0,5.52,1.9,5.71,5.39a26.55,26.55,0,0,1,0,3.09c-.2,3.31-2.06,5.31-5.37,5.34q-15.6.12-31.21,0c-3.45,0-5.35-2.21-5.38-5.72,0-1,0-1.93,0-2.89a5.07,5.07,0,0,1,5.24-5.2C21.05,10.6,26.28,10.63,31.52,10.63Zm.06,10.42H45.22c3.87,0,3.87,0,3.86-3.94,0-.21,0-.41,0-.62.13-1.88-.82-2.6-2.62-2.56-2.41.05-4.83,0-7.24,0H17.1c-2.7,0-3.2.51-3.21,3.28,0,.41,0,.82,0,1.24-.05,1.78.71,2.63,2.6,2.61C21.51,21,26.55,21,31.58,21.05Z"/><path fill="inherit" d="M31.38,35h-14c-.42,0-.93.16-1.22,0-.72-.45-1.72-1-1.89-1.64-.3-1.14.64-1.65,1.78-1.65,10.31,0,20.63,0,30.94.07.67,0,1.33,1,2,1.53-.7.57-1.39,1.63-2.11,1.65C41.7,35.07,36.54,35,31.38,35Z"/><path fill="inherit" d="M31.61,56.08H17.17c-.61,0-1.37.14-1.81-.16a2.43,2.43,0,0,1-1.11-1.69c0-.51.8-1.11,1.37-1.43a3.8,3.8,0,0,1,1.63-.09H45.92c.34,0,.77-.13,1,0,.71.46,1.35,1,2,1.57-.69.59-1.34,1.61-2.09,1.7a55.35,55.35,0,0,1-6.18.08Z"/><path fill="inherit" d="M31.64,42.1H46.49c1.19,0,2.32.16,2.43,1.6s-1,1.77-2.2,1.77H16.6c-1.13,0-2.38,0-2.42-1.53s1.08-1.85,2.4-1.85C21.6,42.11,26.62,42.1,31.64,42.1Z"/></g></g></svg>