<svg xmlns="http://www.w3.org/2000/svg" width="15.898" height="15.231" viewBox="0 0 15.898 15.231">
  <g id="tax" transform="translate(-23.847 2.417)">
    <g id="Group_1120" data-name="Group 1120" transform="translate(23.847)">
      <path id="Path_1209" data-name="Path 1209" d="M0,0,15.94,3.332l.393,1.878L.393,1.878Z" transform="translate(0.324 9.13) rotate(-45)" fill="#001d53"/>
      <path id="Path_1210" data-name="Path 1210" d="M34.407,42.457c1.878,0,3.407-1,3.407-2.229S36.285,38,34.407,38,31,39,31,40.229,32.528,42.457,34.407,42.457Zm0-2.971c.627,0,1.136.333,1.136.743s-.509.743-1.136.743-1.136-.333-1.136-.743S33.78,39.486,34.407,39.486Z" transform="translate(-31 -38)" fill="#001d53"/>
      <path id="Path_1211" data-name="Path 1211" d="M42.407,46C40.528,46,39,47,39,48.229s1.528,2.229,3.407,2.229,3.407-1,3.407-2.229S44.285,46,42.407,46Zm0,2.971c-.627,0-1.136-.333-1.136-.743s.509-.743,1.136-.743,1.136.333,1.136.743S43.034,48.971,42.407,48.971Z" transform="translate(-29.915 -40.057)" fill="#001d53"/>
    </g>
  </g>
</svg>
