<svg xmlns="http://www.w3.org/2000/svg" width="23.089" height="23.086" viewBox="0 0 23.089 23.086">
  <g id="url" transform="translate(0 0)">
    <path id="Path_1195" data-name="Path 1195" d="M.372,7.82H22.717a.372.372,0,0,0,0-.745h-.535A11.462,11.462,0,0,0,11.792.008h-.014a.556.556,0,0,0-.07,0,1.906,1.906,0,0,0-.288,0,.738.738,0,0,0-.1,0H11.3A11.462,11.462,0,0,0,.907,7.075H.372a.372.372,0,0,0,0,.745ZM14.758,3.545a27.875,27.875,0,0,1-2.841.175V.784c1.055.193,2.055,1.2,2.841,2.761ZM11.172.784V3.72a27.847,27.847,0,0,1-2.839-.175C9.115,1.993,10.112.991,11.172.784Zm0,3.681v2.61H7.15A15.581,15.581,0,0,1,8,4.254a28.3,28.3,0,0,0,3.17.211Zm.745,0a28.191,28.191,0,0,0,3.169-.211,15.64,15.64,0,0,1,.853,2.821H11.917Zm3.926-.319c.514-.083,1-.181,1.448-.292a11.324,11.324,0,0,1,1.7,3.221H16.7a16.585,16.585,0,0,0-.854-2.929Zm-.307-.7A8.519,8.519,0,0,0,14.141,1.3a7.875,7.875,0,0,1,2.617,1.914c-.383.086-.792.161-1.222.226Zm-7.982,0q-.647-.1-1.223-.226A7.878,7.878,0,0,1,8.953,1.3a8.478,8.478,0,0,0-1.4,2.143Zm-.308.7a16.616,16.616,0,0,0-.854,2.929H4.1A11.32,11.32,0,0,1,5.8,3.853c.448.112.932.21,1.447.292ZM21.37,7.075H19.778a12.273,12.273,0,0,0-1.716-3.438q.324-.1.61-.217a10.768,10.768,0,0,1,2.7,3.654ZM18,2.876q-.206.07-.43.135a9.589,9.589,0,0,0-1.043-1.057A10.654,10.654,0,0,1,18,2.876ZM5.522,3.011q-.224-.065-.43-.135a10.719,10.719,0,0,1,1.475-.922A9.644,9.644,0,0,0,5.522,3.011Zm-1.1.41q.286.114.61.217A12.277,12.277,0,0,0,3.311,7.075H1.72a10.771,10.771,0,0,1,2.7-3.654Zm0,0" transform="translate(0 0)" fill="#001d53"/>
    <path id="Path_1196" data-name="Path 1196" d="M22.717,327.988H.372a.372.372,0,1,0,0,.745H.907A11.462,11.462,0,0,0,11.3,335.8h.014a.5.5,0,0,0,.07,0h.059c.037,0,.072,0,.106,0s.091,0,.119,0a.673.673,0,0,0,.112-.005h.017a11.462,11.462,0,0,0,10.389-7.065h.535a.372.372,0,1,0,0-.745ZM8.332,332.262a27.884,27.884,0,0,1,2.841-.175v2.936C10.118,334.831,9.117,333.827,8.332,332.262Zm3.586,2.761v-2.936a27.855,27.855,0,0,1,2.839.175C13.975,333.815,12.977,334.817,11.917,335.023Zm0-3.681v-2.61h4.022a15.581,15.581,0,0,1-.852,2.821,28.3,28.3,0,0,0-3.17-.211Zm-.745,0A28.183,28.183,0,0,0,8,331.554a15.641,15.641,0,0,1-.853-2.821h4.022Zm-3.926.319c-.514.083-1,.181-1.448.292a11.324,11.324,0,0,1-1.7-3.221h2.3a16.583,16.583,0,0,0,.853,2.929Zm.307.7a8.519,8.519,0,0,0,1.395,2.141,7.871,7.871,0,0,1-2.617-1.915c.384-.086.792-.161,1.222-.226Zm7.982,0q.646.1,1.223.226a7.881,7.881,0,0,1-2.622,1.917,8.489,8.489,0,0,0,1.4-2.144Zm.308-.7a16.616,16.616,0,0,0,.854-2.929h2.3a11.32,11.32,0,0,1-1.7,3.221c-.448-.112-.932-.21-1.447-.292ZM1.72,328.733H3.312a12.273,12.273,0,0,0,1.716,3.438q-.324.1-.61.217a10.768,10.768,0,0,1-2.7-3.654Zm3.372,4.2q.206-.07.43-.135a9.626,9.626,0,0,0,1.044,1.057,10.683,10.683,0,0,1-1.474-.922Zm12.476-.135q.224.065.43.135a10.718,10.718,0,0,1-1.475.922A9.643,9.643,0,0,0,17.568,332.8Zm1.1-.41q-.286-.114-.61-.217a12.276,12.276,0,0,0,1.717-3.438H21.37a10.771,10.771,0,0,1-2.7,3.654Zm0,0" transform="translate(0 -312.72)" fill="#001d53"/>
    <path id="Path_1197" data-name="Path 1197" d="M196.482,200.274l-.847,2.825-.7-1.4a.388.388,0,0,0-.667,0l-.7,1.4-.847-2.824a.372.372,0,0,0-.714.214l1.117,3.724a.372.372,0,0,0,.325.264.367.367,0,0,0,.365-.2l.784-1.569.782,1.568a.372.372,0,0,0,.335.206h.032a.372.372,0,0,0,.325-.264l1.117-3.724a.372.372,0,1,0-.714-.214Zm0,0" transform="translate(-183.059 -190.699)" fill="#001d53"/>
    <path id="Path_1198" data-name="Path 1198" d="M324.482,200.274l-.847,2.825-.7-1.4a.388.388,0,0,0-.667,0l-.7,1.4-.847-2.824a.372.372,0,0,0-.714.214l1.117,3.724a.372.372,0,0,0,.325.264.368.368,0,0,0,.365-.2l.784-1.569.782,1.568a.372.372,0,0,0,.335.206h.032a.372.372,0,0,0,.325-.264l1.117-3.724a.372.372,0,1,0-.714-.214Zm0,0" transform="translate(-305.101 -190.699)" fill="#001d53"/>
    <path id="Path_1199" data-name="Path 1199" d="M68.482,200.274l-.847,2.825-.7-1.4a.388.388,0,0,0-.667,0l-.7,1.4-.847-2.824a.372.372,0,0,0-.714.214l1.117,3.724a.372.372,0,0,0,.325.264.367.367,0,0,0,.365-.2L66.6,202.7l.784,1.568a.372.372,0,0,0,.333.206h.032a.372.372,0,0,0,.325-.264l1.117-3.724a.372.372,0,1,0-.714-.214Zm0,0" transform="translate(-61.018 -190.699)" fill="#001d53"/>
  </g>
</svg>
