<svg xmlns="http://www.w3.org/2000/svg" viewBox="0 0 71.84 72.81"><defs><style>.cls-1,.cls-2,.cls-3{fill:none;stroke:inherit;stroke-miterlimit:10;}.cls-1{stroke-width:2px;}.cls-2{stroke-width:1px;}.cls-3{stroke-width:3.5px;}.cls-4{fill:inherit;}</style></defs><title>catalog</title><g id="Layer_2" data-name="Layer 2"><g id="Layer_1-2" data-name="Layer 1"><path class="cls-1" d="M47.22,59.06,6.43,57.61A3.82,3.82,0,0,1,2.74,53.8L2.5,6.35A3.83,3.83,0,0,1,6.35,2.5l23.18.11a3.83,3.83,0,0,1,3.58,2.52L51,53.92A3.83,3.83,0,0,1,47.22,59.06Z"/><path class="cls-2" d="M40.39,70.16l-4-10,14.71-.59Z"/><path class="cls-2" d="M67.16,70.62H41.62q-2.1-4.38-4.21-8.78l13.24-4.65Q44.43,35.44,38.19,13.7l29,.07A3.18,3.18,0,0,1,70.34,17v50.5A3.18,3.18,0,0,1,67.16,70.62Z"/><rect class="cls-2" x="42.05" y="27.62" width="20.03" height="1.96" rx="0.98"/><rect class="cls-2" x="45.02" y="36.7" width="17.07" height="1.96" rx="0.98"/><rect class="cls-2" x="48.64" y="45.78" width="13.45" height="1.96" rx="0.98"/><rect class="cls-2" x="10.61" y="45.78" width="25.73" height="1.96" rx="0.98"/><rect class="cls-2" x="10.45" y="36.7" width="25.73" height="1.96" rx="0.98"/><rect class="cls-2" x="51.45" y="54.86" width="10.63" height="1.96" rx="0.98"/><path class="cls-3" d="M23.32,16.54h0A11.09,11.09,0,0,1,34.41,27.62v0a0,0,0,0,1,0,0H12.23a0,0,0,0,1,0,0v0A11.09,11.09,0,0,1,23.32,16.54Z"/><circle class="cls-4" cx="23.32" cy="15.36" r="3.5"/></g></g></svg>