<svg xmlns="http://www.w3.org/2000/svg" viewBox="0 0 122.3 120.81"><title>catalogcheck</title><g id="Layer_2" data-name="Layer 2"><g id="Layer_1-2" data-name="Layer 1"><path d="M20.12,15.18c.41-7.85,6.31-4,10.4-5.53a5.29,5.29,0,0,0,.7-1.07C33.53,3.52,37,.13,43,0S52.4,3,55.17,7.92c.73,1.31,3.46,2,5.3,2.09,3.35.1,6.14.26,5.66,5.17,2.8,0,5.27-.06,7.72,0,6.65.2,11.53,4.31,12.21,10.82a90.37,90.37,0,0,1,.16,13.47c0,1.09-1.52,2.11-2.33,3.16-.71-1.12-1.9-2.19-2-3.38a68.6,68.6,0,0,1-.11-8C81.7,22.34,79.32,20,70.53,20c-1.31,0-2.62.12-3.87.18-2,8.93-3.27,9.87-12.51,9.88H32.66c-9.39,0-10.5-.85-12.76-10.06-2.17,0-4.47-.08-6.76,0-5.05.2-8.14,3-8.17,8.13q-.16,32.49,0,65c0,5.47,3.19,8.31,9,8.37,10,.11,20,0,30,0,1.33,0,2.77-.26,4,.17s1.85,1.53,2.76,2.34c-1,.72-1.87,2-2.85,2.07-4.32.24-8.66.13-13,.13-7.16,0-14.33.08-21.49,0C5.53,106.15.23,101.4.16,93.67q-.32-33,0-66C.25,20,5.7,15.3,13.5,15.18,15.49,15.15,17.49,15.18,20.12,15.18Zm5.65-.25c-.08,1.34-.11,2.3-.19,3.25-.62,6.68-.28,7.06,6.53,7.06,7.83,0,15.66-.22,23.48.09,4.51.18,6.1-1.56,5.52-5.82-.19-1.44-.25-2.89-.37-4.34A14.36,14.36,0,0,0,58.41,15c-4.18.43-7-.27-8.34-5.3-.55-2.11-4.5-4.23-7.18-4.66-3.58-.58-6.37,2-7,5.73-.57,3.43-2.35,4.47-5.49,4.22C29,14.84,27.48,14.93,25.77,14.93Z"/><path d="M121.93,75.8c2.6,21.64-9,34.85-26.63,44.19-1.93,1-5.54,1.15-7.21,0-6.51-4.49-13.08-9.14-18.65-14.7C63.35,99.2,61.17,91,61.13,82.4c0-5.66.12-11.33-.05-17-.1-3.08.82-5,3.94-5.94,7.91-2.49,15.7-5.4,23.64-7.78a12.3,12.3,0,0,1,6.71.3c7.47,2.26,14.81,5,22.26,7.28,3.14,1,4.7,2.51,4.37,6S121.93,72.3,121.93,75.8ZM117.09,77c0-3.16.31-6.37-.13-9.46-.22-1.55-1.52-3.7-2.86-4.21-6.64-2.58-13.43-4.78-20.23-6.93a7.56,7.56,0,0,0-4.37,0c-7,2.2-13.88,4.52-20.73,7-1.13.41-2.67,1.88-2.68,2.87C66,73.6,65.5,81,66.64,88.19c2.14,13.56,12,21.28,23.27,27.43,1.18.65,3.59,0,5-.78C109.2,106.36,119.4,95.35,117.09,77Z"/><path d="M43.24,45.22c-7.8,0-15.61.11-23.4-.11-1.38,0-2.72-1.47-4.07-2.25,1.41-.81,2.81-2.3,4.24-2.32q23.4-.24,46.8,0c1.36,0,2.7,1.59,4.06,2.45-1.41.74-2.81,2.08-4.23,2.12C58.84,45.33,51,45.22,43.24,45.22Z"/><path d="M33.45,71.18c4.64,0,9.29-.14,13.92.1,1.15.06,2.23,1.36,3.33,2.08-1,.88-2,2.49-3.06,2.52q-14.41.28-28.85,0c-1,0-2-1.62-3-2.48,1.08-.74,2.13-2.06,3.24-2.12C23.82,71.05,28.64,71.18,33.45,71.18Z"/><path d="M33.23,56c4.65,0,9.3-.13,13.94.1,1.2.06,2.34,1.27,3.51,2-1.2.85-2.39,2.41-3.6,2.44-9.29.2-18.59.18-27.89,0-1.14,0-2.25-1.33-3.38-2,1.16-.82,2.28-2.28,3.48-2.35C23.92,55.8,28.58,56,33.23,56Z"/><path d="M89.64,90.59c4.78-5,9.13-9.79,13.77-14.28,1.17-1.12,3.27-1.29,4.94-1.89-.47,1.68-.46,3.81-1.51,5-4.73,5.11-9.82,9.88-14.66,14.89-2.26,2.35-4,2.4-6.05-.25-2.6-3.44-5.5-6.65-8-10.18-.76-1.08-.49-2.88-.69-4.35,1.51.55,3.45.69,4.45,1.73C84.55,83.91,86.76,87,89.64,90.59Z"/></g></g></svg>