<svg xmlns="http://www.w3.org/2000/svg" viewBox="0 0 121.84 121.78"><title>check</title><g id="Layer_2" data-name="Layer 2"><g id="Layer_1-2" data-name="Layer 1"><path d="M61.26,0a60.6,60.6,0,0,1,60.58,61.18c-.06,33.27-27.54,60.64-60.85,60.6-33.47,0-61.06-27.69-61-61.13A60.92,60.92,0,0,1,61.26,0ZM61,116.66A55.83,55.83,0,1,0,5,60.83,56,56,0,0,0,61,116.66Z"/><path d="M53,81.21,74.56,59.65c5.52-5.53,10.93-11.19,16.66-16.5,1.5-1.39,4-1.67,6.09-2.46-.81,1.92-1.18,4.25-2.51,5.68C89.7,51.85,84.3,57,79,62.33c-7.4,7.41-14.9,14.74-22.18,22.29-2.64,2.74-4.54,3-7.34.14-7.61-7.91-15.54-15.52-23.15-23.43-1-1.08-1-3.2-1.44-4.84,1.69.5,3.87.49,5,1.58C37.62,65.56,45.15,73.28,53,81.21Z"/></g></g></svg>