<svg xmlns="http://www.w3.org/2000/svg" viewBox="0 0 116.93 121.81"><title>filder</title><g id="Layer_2" data-name="Layer 2"><g id="Layer_1-2" data-name="Layer 1"><path d="M58.35.05c13.16,0,26.32,0,39.48,0,8.94,0,13.51,4.56,13.8,13.43.08,2.5.11,5,0,7.5a14.81,14.81,0,0,0,2.84,10.2c1.71,2.3,2.24,5.89,2.29,8.93.23,13.82.17,27.65.08,41.48-.06,10-4.83,14.59-14.75,14.63a56.64,56.64,0,0,1-7.49-.12c-1-.13-1.87-1.37-2.8-2.11.88-.85,1.69-2.32,2.65-2.43,3-.34,6-.1,9-.19,5.43-.16,8.56-2.84,8.62-8.22q.27-22.24,0-44.49c-.06-5.67-3.42-8.48-9.46-8.5-18.32,0-36.65-.1-55,0-7.18.05-12.05-2.73-14.5-9.67a7.68,7.68,0,0,0-8-5.53c-4.17.09-8.34-.1-12.5.07C8,15.28,5.09,18,5.06,22.64q-.19,30.48,0,61c0,4.91,3,7.57,7.9,7.77,3,.12,6-.19,9,.17,1.14.14,2.11,1.59,3.16,2.44C24,94.73,23,96,21.82,96.13a72,72,0,0,1-10.49,0A11.81,11.81,0,0,1,.3,84.66c-.15-21-.77-42,.38-62.95C1,15.32,6,8.85,9.85,3.14c1.44-2.1,5.9-2.88,9-3C32-.13,45.19.05,58.35.05Zm48.69,25c0-3.71.06-7.16,0-10.61-.15-6.89-2.85-9.64-9.79-9.7-9.65-.1-19.29,0-28.94,0q-24.2,0-48.39,0c-3.84,0-7.58.35-9,5.49,4.74,0,9,.1,13.36,0C30.91,10,35.46,12.9,37.7,19.11c1.65,4.58,4.79,6.29,9.55,6.26,18.29-.11,36.58,0,54.87-.05C103.57,25.31,105,25.16,107,25.05Z"/><path d="M58.46,66.22a27.8,27.8,0,0,1-.06,55.59A28.34,28.34,0,0,1,30.5,94.14C30.31,78.9,43,66.21,58.46,66.22ZM58.38,71A23.12,23.12,0,0,0,35.3,93.74C35.16,106.2,46,117.12,58.46,117.09a23.14,23.14,0,0,0,22.9-23.41A22.77,22.77,0,0,0,58.38,71Z"/><path d="M58.15,75.87c1,.84,1.79,1.23,2.16,1.86a3.91,3.91,0,0,1,.56,2.36c-1.33,8.92,1,16.27,8.61,21.72.77.55.55,2.48.8,3.77-1.33-.13-3,.2-3.92-.47C57.63,98.82,53.79,88.63,56.3,78.73,56.54,77.78,57.4,77,58.15,75.87Z"/></g></g></svg>