<svg xmlns="http://www.w3.org/2000/svg" viewBox="0 0 122.12 122"><title>fullscreen</title><g id="Layer_2" data-name="Layer 2"><g id="Layer_1-2" data-name="Layer 1"><path d="M7.42,109.25c1.77-1.61,3-2.64,4.1-3.76Q30.42,86.62,49.3,67.74c1.94-1.93,4-5,7-1.89,2.7,2.81-.16,4.8-2,6.62Q35.63,91.22,16.87,109.88a34.18,34.18,0,0,1-4.44,3.21l.83,1.44a28.15,28.15,0,0,0,3.52.42c9.48,0,19-.12,28.45.17,1.66.06,3.25,1.95,4.88,3-1.66,1.24-3.28,3.49-5,3.54q-20.44.55-40.92.22c-1.47,0-4.13-2.69-4.15-4.16-.19-13.3.06-26.6.22-39.89,0-2.39-.69-5.56,3-5.74S7.14,75,7.15,77.71c0,8.65,0,17.31,0,26C7.17,105.26,7.31,106.86,7.42,109.25Z"/><path d="M115.21,11.82c-2.34,2.22-3.66,3.42-4.93,4.68Q91.37,35.4,72.45,54.31c-1.87,1.88-4.14,4.52-6.48,1.4-.81-1.08.31-4.74,1.66-6.13C80.06,36.8,92.75,24.27,105.34,11.65c1.24-1.24,2.38-2.57,4.43-4.79H83.38c-1.83,0-3.81.43-5.46-.12-2-.68-5.18-1.94-5.42-3.37C71.88-.24,75.22,0,77.7,0q16.24,0,32.49,0c11.88,0,11.88,0,11.88,12.12,0,10.67.17,21.34-.16,32-.06,2-2,5.3-3.33,5.46-3.32.39-3.38-2.75-3.38-5.35C115.22,33.92,115.21,23.62,115.21,11.82Z"/></g></g></svg>