<svg width="86" height="90" viewBox="0 0 86 90" fill="none" xmlns="http://www.w3.org/2000/svg">
<path fill-rule="evenodd" clip-rule="evenodd" d="M3.54483 2.415C2.11183 3.743 0.67783 5.88 0.35883 7.165C0.0388304 8.449 -0.09117 26.3 0.06783 46.833L0.35883 84.166L3.62483 87.083L6.89083 90H32.9238C54.1888 90 59.4928 89.723 61.8788 88.49C65.6848 86.521 66.8588 84.165 66.8588 78.492C66.8588 74.614 66.5718 73.908 65.1088 74.185C63.8338 74.427 63.2758 75.664 63.0518 78.742C62.5328 85.895 62.0988 86 33.1358 86C9.19183 86 7.75383 85.895 5.85883 84C3.93183 82.073 3.85883 80.667 3.85883 45.223C3.85883 13.554 4.07483 8.136 5.41583 6.223C6.91983 4.075 7.54383 4 23.8098 4H40.6468L41.0148 12.092C41.3628 19.76 41.5528 20.337 44.6358 23.092C47.6108 25.75 48.5298 26 55.3268 26H62.7638L63.0608 32.25C63.2878 37.007 63.7168 38.5 64.8588 38.5C66.0418 38.5 66.4218 36.82 66.6538 30.561L66.9498 22.622L55.6708 11.311L44.3918 0H25.2708C6.44183 0 6.11083 0.0370009 3.54483 2.415ZM52.8588 14.5L60.3088 22H54.5838C46.8608 22 44.8588 20.044 44.8588 12.5C44.8588 9.475 44.9828 7 45.1338 7C45.2848 7 48.7618 10.375 52.8588 14.5ZM72.7848 38.663C65.0258 44.832 46.9938 61.205 46.4778 62.55C46.1768 63.334 45.6328 66.223 45.2688 68.971C44.4698 74.994 45.1938 75.484 53.1628 74.313C58.4098 73.542 59.4248 72.863 72.7788 61.187C88.5098 47.433 87.9448 48.909 80.6388 40.663L76.3528 35.826L72.7848 38.663ZM78.9228 45.09C81.5148 48.729 82.7118 47.152 66.9898 60.805C59.1478 67.614 55.7808 69.907 53.1788 70.211C49.1478 70.681 48.8668 70.407 49.5788 66.684C49.9638 64.669 53.6098 60.796 62.5168 52.939C69.3368 46.923 75.3238 42 75.8198 42C76.3168 42 77.7128 43.391 78.9228 45.09Z" fill="black"/>
</svg>
