<svg xmlns="http://www.w3.org/2000/svg" width="30" height="36.766" viewBox="0 0 30 36.766">
  <path id="_151-notification-1" data-name="151-notification-1" d="M29.507,30.576H27.67V19.437A12.362,12.362,0,0,0,17.925,7.372a4.143,4.143,0,1,0-5.194,0A12.362,12.362,0,0,0,2.987,19.437V30.576H1.149a.821.821,0,0,0,0,1.643h9.276a4.917,4.917,0,0,0,9.806,0h9.276a.821.821,0,1,0,0-1.643ZM15.328,1.646a2.5,2.5,0,1,1-2.5,2.5A2.5,2.5,0,0,1,15.328,1.646Zm0,7.093a10.711,10.711,0,0,1,10.7,10.7v3.9H4.629v-3.9A10.711,10.711,0,0,1,15.328,8.739ZM4.629,24.976h21.4v5.6H4.629Zm10.7,10.148a3.279,3.279,0,0,1-3.254-2.905h6.508A3.28,3.28,0,0,1,15.328,35.124Zm0,0" transform="translate(-0.328)" fill="#021a53"/>
</svg>
