<svg id="_104-image-2" data-name="104-image-2" xmlns="http://www.w3.org/2000/svg" width="85.496" height="67.888" viewBox="0 0 85.496 67.888">
  <path id="Path_895" data-name="Path 895" d="M131.683,81.335a12.421,12.421,0,1,0-12.421-12.421A12.421,12.421,0,0,0,131.683,81.335Zm0-21.175a8.752,8.752,0,1,1-8.752,8.752A8.752,8.752,0,0,1,131.683,60.16Zm0,0" transform="translate(-97.38 -46.216)" fill="#c4c4c4"/>
  <path id="Path_896" data-name="Path 896" d="M76.322.484H9.174A9.184,9.184,0,0,0,0,9.658V59.2a9.184,9.184,0,0,0,9.174,9.174H76.322A9.184,9.184,0,0,0,85.5,59.2V9.658A9.184,9.184,0,0,0,76.322.484ZM9.174,4.154H76.322a5.511,5.511,0,0,1,5.5,5.5V45.832L70.848,30.278a9.174,9.174,0,0,0-14.9-.13l-12.5,17.06a5.492,5.492,0,0,1-7.5,1.321l-9.342-6.251a9.158,9.158,0,0,0-10.154-.034L3.67,50.76V9.658A5.511,5.511,0,0,1,9.174,4.154ZM76.322,64.7H9.174a5.511,5.511,0,0,1-5.5-5.5V55.17L18.484,45.3a5.493,5.493,0,0,1,6.087.022l9.342,6.252a9.153,9.153,0,0,0,12.5-2.2l12.5-17.06a5.5,5.5,0,0,1,8.937.078L81.825,52.2v7A5.511,5.511,0,0,1,76.322,64.7Zm0,0" transform="translate(0 -0.484)" fill="#c4c4c4"/>
</svg>
