<svg id="_002-exit" data-name="002-exit" xmlns="http://www.w3.org/2000/svg" width="27.515" height="30.017" viewBox="0 0 27.515 30.017">
  <path id="Path_897" data-name="Path 897" d="M43.5,35a.5.5,0,0,1-.354-.854l5-5a.5.5,0,0,1,.707.707l-5,5A.5.5,0,0,1,43.5,35Z" transform="translate(-21.488 -14.492)" fill="#021a53"/>
  <path id="Path_898" data-name="Path 898" d="M48.5,25a.5.5,0,0,1-.354-.147l-5-5a.5.5,0,1,1,.707-.707l5,5A.5.5,0,0,1,48.5,25Z" transform="translate(-21.488 -9.495)" fill="#021a53"/>
  <path id="Path_899" data-name="Path 899" d="M36.51,30H19.5a.5.5,0,1,1,0-1H36.51a.5.5,0,1,1,0,1Z" transform="translate(-9.495 -14.492)" fill="#021a53"/>
  <path id="Path_900" data-name="Path 900" d="M13.649,30.017H4.361A4.366,4.366,0,0,1,0,25.655V4.361A4.366,4.366,0,0,1,4.361,0h9.288A4.366,4.366,0,0,1,18.01,4.361v7.645a.5.5,0,1,1-1,0V4.361A3.365,3.365,0,0,0,13.649,1H4.361A3.365,3.365,0,0,0,1,4.361V25.655a3.365,3.365,0,0,0,3.361,3.361h9.288a3.364,3.364,0,0,0,3.36-3.361V18.01a.5.5,0,1,1,1,0v7.646A4.366,4.366,0,0,1,13.649,30.017Z" fill="#021a53"/>
</svg>
