<svg id="Group_853" data-name="Group 853" xmlns="http://www.w3.org/2000/svg" width="40" height="40" viewBox="0 0 40 40">
  <path id="Path_891" data-name="Path 891" d="M39.939,7.806a.848.848,0,0,0-.029-.216l-.1.028,0-.005.1-.029A10.289,10.289,0,0,0,31.333.093V0H10a10.307,10.307,0,0,0-9.9,7.574.861.861,0,0,0-.03.225A.77.77,0,0,0,0,8.107V40H40V8.107A.779.779,0,0,0,39.939,7.806ZM30.62,1.36a8.958,8.958,0,0,1,7.816,5.973H29.864a9.582,9.582,0,0,0-4.441-6h4.561ZM28.667,9.333a4,4,0,0,1-8,0V8.667h8ZM11.333,8.667h8v.667a4,4,0,1,1-8,0Zm9.333-7.333a8.26,8.26,0,0,1,7.828,6H20.667Zm-1.333,6H11.505a8.26,8.26,0,0,1,7.828-6Zm-9.318-6h4.561a9.582,9.582,0,0,0-4.441,6H1.565A8.982,8.982,0,0,1,10.015,1.333ZM1.333,8.667H10v.667a4,4,0,0,1-4,4H5.333a4,4,0,0,1-4-4ZM36,29.333H27.333v-7a4.333,4.333,0,0,1,8.667,0Zm-8.667,9.333v-8H36v8Zm-1.334,0H1.333V12.857c.033.038.072.072.107.109.068.073.137.145.209.214s.117.108.177.161.151.129.229.19c.063.049.127.1.191.143.081.058.164.113.248.166.067.043.135.085.2.124.088.05.178.1.269.142.07.035.14.071.212.1.1.042.193.079.29.116.072.027.143.055.217.079.1.034.211.061.318.089.071.018.14.039.212.055.121.026.243.043.367.061.061.009.121.021.183.028a5.519,5.519,0,0,0,.568.031H6a5.322,5.322,0,0,0,.664-.046c.063-.008.125-.019.187-.029.165-.027.326-.061.485-.1.055-.014.111-.027.165-.043a5.272,5.272,0,0,0,.6-.213c.03-.013.057-.029.087-.042a5.363,5.363,0,0,0,.481-.248c.054-.031.106-.063.159-.1.141-.089.277-.183.409-.285.037-.028.075-.054.111-.083a5.286,5.286,0,0,0,.461-.419c.033-.033.063-.069.095-.1q.169-.182.321-.378c.038-.049.075-.1.111-.149a5.28,5.28,0,0,0,.291-.453c.013-.022.029-.042.041-.064.013.022.029.042.041.064.089.156.187.307.291.453.036.051.073.1.111.149q.152.2.321.378c.032.035.061.071.095.1a5.286,5.286,0,0,0,.461.419c.036.029.075.055.111.083.132.1.268.2.409.285.053.033.1.065.159.1a5.358,5.358,0,0,0,.481.248c.029.013.057.029.087.042a5.227,5.227,0,0,0,.6.213c.055.016.11.028.165.043.159.041.321.075.485.1.062.01.124.021.187.029a4.806,4.806,0,0,0,1.327,0c.063-.008.125-.019.187-.029.165-.027.326-.061.485-.1.055-.014.111-.027.165-.043a5.273,5.273,0,0,0,.6-.213c.03-.013.057-.029.087-.042A5.363,5.363,0,0,0,18,13.944c.054-.031.106-.063.159-.1.141-.089.277-.183.409-.285.037-.028.075-.054.111-.083a5.286,5.286,0,0,0,.461-.419c.033-.033.063-.069.095-.1q.169-.182.321-.378c.038-.049.075-.1.111-.149a5.279,5.279,0,0,0,.291-.453c.013-.022.029-.042.041-.064.013.022.029.042.041.064.089.156.187.307.291.453.036.051.073.1.111.149q.152.2.321.378c.032.035.061.071.095.1a5.286,5.286,0,0,0,.461.419c.036.029.075.055.111.083.132.1.268.2.409.285.053.033.1.065.159.1a5.358,5.358,0,0,0,.481.248c.029.013.057.029.087.042a5.227,5.227,0,0,0,.6.213c.055.016.11.028.165.043.159.041.321.075.485.1.062.01.124.021.187.029a4.806,4.806,0,0,0,1.327,0c.063-.008.125-.019.187-.029.165-.027.326-.061.485-.1.055-.014.111-.027.165-.043a5.273,5.273,0,0,0,.6-.213c.03-.013.057-.029.087-.042a5.363,5.363,0,0,0,.481-.248c.054-.031.106-.063.159-.1.141-.089.277-.183.409-.285.037-.028.075-.054.111-.083a5.286,5.286,0,0,0,.461-.419c.033-.033.063-.069.095-.1q.169-.182.321-.378c.038-.049.075-.1.111-.149a5.28,5.28,0,0,0,.291-.453c.013-.022.029-.042.041-.064.013.022.029.042.041.064.089.156.187.307.291.453.036.051.073.1.111.149q.152.2.321.378c.032.035.061.071.095.1a5.286,5.286,0,0,0,.461.419c.036.029.075.055.111.083.132.1.268.2.409.285.053.033.1.065.159.1a5.357,5.357,0,0,0,.481.248c.029.013.057.029.087.042a5.227,5.227,0,0,0,.6.213c.055.016.11.028.165.043.159.041.321.075.485.1.062.01.124.021.187.029a5.283,5.283,0,0,0,.663.046h.667a5.314,5.314,0,0,0,.567-.031c.062-.007.122-.019.184-.028.123-.017.246-.035.367-.061.072-.015.141-.037.212-.055.107-.027.214-.055.318-.089.073-.024.145-.053.217-.079.1-.037.2-.074.29-.116.072-.032.142-.067.212-.1.091-.045.181-.091.269-.142.069-.039.137-.081.2-.124.084-.053.167-.108.247-.166q.1-.07.192-.144c.078-.061.153-.124.228-.189s.119-.105.177-.161.141-.141.209-.214c.035-.036.074-.07.107-.108V38.667H37.333V22.333a5.667,5.667,0,0,0-11.333,0Zm8.667-25.332H34a4,4,0,0,1-4-4V8.667h8.667v.667A4,4,0,0,1,34.667,13.333Z" fill="#021a53"/>
  <path id="Path_892" data-name="Path 892" d="M4,43.667H26V25H4ZM5.333,26.333H24.667v16H5.333Z" transform="translate(-1.333 -8.333)" fill="#021a53"/>
</svg>
