<svg xmlns="http://www.w3.org/2000/svg" width="30" height="30" viewBox="0 0 30 30">
  <g id="_193-settings" data-name="193-settings" transform="translate(-0.004)">
    <path id="Path_901" data-name="Path 901" d="M29.345,12.183l-2.589-.249a11.974,11.974,0,0,0-1.3-3.078l1.645-1.984a.728.728,0,0,0-.043-.976L24.145,2.944a.728.728,0,0,0-.982-.049L21.17,4.542a12.254,12.254,0,0,0-3.079-1.3L17.842.658A.729.729,0,0,0,17.117,0h-4.19A.728.728,0,0,0,12.2.658l-.249,2.584a12.022,12.022,0,0,0-3.083,1.3L6.882,2.895A.729.729,0,0,0,5.9,2.94L2.948,5.892a.728.728,0,0,0-.046.98L4.551,8.86a12.231,12.231,0,0,0-1.3,3.073l-2.589.249A.728.728,0,0,0,0,12.908v4.185a.728.728,0,0,0,.658.725l2.589.249a11.974,11.974,0,0,0,1.3,3.078L2.9,23.128a.728.728,0,0,0,.046.98L5.9,27.06a.729.729,0,0,0,.979.046l1.992-1.648a12.254,12.254,0,0,0,3.079,1.3l.249,2.585a.728.728,0,0,0,.725.658h4.19a.728.728,0,0,0,.725-.658l.249-2.584a12.012,12.012,0,0,0,3.083-1.3l1.988,1.644a.728.728,0,0,0,.979-.046L27.1,24.108a.729.729,0,0,0,.046-.98L25.494,21.14a12.233,12.233,0,0,0,1.3-3.074l2.552-.249A.728.728,0,0,0,30,17.092V12.908A.728.728,0,0,0,29.345,12.183Zm-.8,4.249-2.41.235a.728.728,0,0,0-.641.571,10.777,10.777,0,0,1-1.509,3.57.729.729,0,0,0,.051.86l1.559,1.88-2.017,2.014L21.7,24a.728.728,0,0,0-.868-.045,10.5,10.5,0,0,1-3.566,1.5.728.728,0,0,0-.571.642l-.236,2.443H13.589L13.353,26.1a.728.728,0,0,0-.571-.642,10.82,10.82,0,0,1-3.575-1.507A.728.728,0,0,0,8.348,24L6.464,25.562,4.447,23.547l1.559-1.88a.728.728,0,0,0,.045-.869,10.453,10.453,0,0,1-1.5-3.561.728.728,0,0,0-.642-.571L1.46,16.431V13.569l2.446-.236a.728.728,0,0,0,.642-.571,10.789,10.789,0,0,1,1.509-3.57.729.729,0,0,0-.051-.86L4.447,6.453,6.464,4.438,8.348,6a.728.728,0,0,0,.868.045,10.489,10.489,0,0,1,3.566-1.5.728.728,0,0,0,.571-.642l.236-2.443h2.867L16.692,3.9a.728.728,0,0,0,.571.642,10.816,10.816,0,0,1,3.575,1.507A.729.729,0,0,0,21.7,6l1.881-1.556L25.564,6.45,24,8.333a.728.728,0,0,0-.045.869,10.461,10.461,0,0,1,1.5,3.561.728.728,0,0,0,.642.571l2.447.236Zm0,0" fill="#021a53"/>
    <path id="Path_902" data-name="Path 902" d="M118.847,111.539a7.307,7.307,0,1,0,7.307,7.307A7.307,7.307,0,0,0,118.847,111.539Zm0,13.067a5.76,5.76,0,1,1,5.76-5.76A5.76,5.76,0,0,1,118.847,124.606Zm0,0" transform="translate(-103.843 -103.846)" fill="#021a53"/>
  </g>
</svg>
