<svg xmlns="http://www.w3.org/2000/svg" width="30" height="32.865" viewBox="0 0 30 32.865">
  <path id="_195-share-1" data-name="195-share-1" d="M24.765,11.11A5.556,5.556,0,1,0,19.9,8.224l-9.61,5.011a5.551,5.551,0,1,0-.076,6.913l9.459,4.918a5.573,5.573,0,1,0,.745-1.242l-9.443-4.909a5.541,5.541,0,0,0,.05-4.433L20.765,9.4A5.535,5.535,0,0,0,24.765,11.11Zm0,12.052a4.106,4.106,0,1,1-4.106,4.106A4.106,4.106,0,0,1,24.765,23.162ZM5.909,20.75a4.106,4.106,0,1,1,4.106-4.106A4.106,4.106,0,0,1,5.909,20.75Zm18.856-19.3a4.106,4.106,0,1,1-4.106,4.106A4.106,4.106,0,0,1,24.765,1.452Zm0,0" transform="translate(-0.355 0.001)" fill="#021a53"/>
</svg>
